<svg width="198" height="40" viewBox="0 0 198 40" fill="none" xmlns="http://www.w3.org/2000/svg">
<path d="M196.839 33.0617L189.576 25.1724L196.073 17.7007L191.966 17.7239L186.235 25.2188L192.245 33.0849L196.839 33.0617ZM182.151 33.1313L185.423 33.1081L185.33 11.1572L182.058 11.1804L182.151 33.1313ZM166.117 33.1777H169.389L169.366 26.843C169.342 23.2232 171.431 20.2763 174.03 20.2763C175.747 20.2763 176.884 21.3437 176.884 22.968L176.93 33.1313L180.179 33.1081L180.132 22.2719C180.109 19.4178 177.742 17.5383 174.192 17.5615C172.173 17.5615 170.387 19.0929 169.296 21.4133L169.087 17.8167L166.024 17.8399L166.117 33.1777ZM152.543 25.5668C152.543 22.5967 153.935 20.6012 156.023 20.578L159.945 20.5548L159.968 25.2884C159.991 28.2817 158.228 30.7181 156.07 30.7413C153.958 30.7645 152.543 28.6993 152.543 25.5668ZM149.155 25.59C149.178 30.3236 151.684 33.4793 155.443 33.4561C157.439 33.4561 159.202 31.9943 160.247 29.8131L160.432 33.1081L163.402 33.2705C163.402 33.2705 163.263 30.8341 163.263 29.0242L163.217 17.8167L160.363 17.8399L159.968 20.3692L158.321 17.8399L155.374 17.8631C151.615 17.9095 149.132 20.9725 149.155 25.59ZM137.484 14.3594H139.897C142.356 14.3362 144.027 15.4267 144.027 17.051C144.027 19.209 142.38 20.6708 139.92 20.694H137.507L137.484 14.3594ZM137.53 23.3857L140.755 23.3625C143.238 23.3625 144.886 24.9636 144.886 27.4231C144.909 29.3259 143.261 30.6021 140.779 30.6021L137.553 30.6253L137.53 23.3857ZM134.096 33.3401L141.312 33.3169C145.535 33.2937 148.366 30.9269 148.343 27.4231C148.343 24.6619 145.767 22.3879 142.565 21.9006C145.164 21.1349 147.09 19.2322 147.09 17.0278C147.067 13.7793 144.236 11.6213 140.013 11.6445L134.026 11.6677L134.096 33.3401ZM117.76 33.4097L121.032 33.3865L121.009 27.2839C120.986 23.5481 123.074 20.5084 125.673 20.4852C127.39 20.462 128.527 21.5526 128.55 23.1768L128.597 33.3401L131.868 33.3169L131.822 22.4807C131.799 19.6266 129.432 17.7471 125.882 17.7471C123.863 17.7703 122.099 19.2786 121.009 21.6454L120.962 11.4125L117.691 11.4357L117.76 33.4097ZM104.882 32.644C106.182 33.1777 108.107 33.665 109.569 33.665C113.816 33.6418 116.09 31.9711 116.066 28.885C116.043 25.59 113.259 24.7547 110.869 24.0586C109.244 23.5713 107.899 22.8983 107.875 21.9237C107.875 20.9956 108.943 20.4851 110.938 20.4619C112.493 20.4619 113.885 21.042 115.022 21.9237L114.999 18.3039C113.7 17.9559 112.423 17.8166 111.124 17.8166C107.017 17.8398 104.813 19.3017 104.813 21.9933C104.836 25.5435 107.736 26.4253 110.149 27.1214C111.82 27.6087 113.004 28.212 113.004 29.2329C113.004 30.3699 112.029 30.9964 109.941 31.0196C108.432 31.0196 106.437 30.3467 104.836 29.0937L104.882 32.644ZM91.7256 25.8453C91.7024 22.852 93.0946 20.8796 95.2062 20.8564L99.1276 20.8332L99.1508 25.5668C99.174 28.5601 97.4105 30.9965 95.2758 30.9965C93.141 31.0429 91.7488 28.9778 91.7256 25.8453ZM88.3378 25.8685C88.361 30.6021 90.867 33.7578 94.6029 33.7578C96.6216 33.7346 98.3619 32.2959 99.406 30.1148L99.5917 33.4097L102.562 33.5722C102.562 33.5722 102.423 31.1357 102.423 29.3258L102.376 18.1184L99.5221 18.1416L99.1276 20.6708L97.4801 18.1416L94.5564 18.1648C90.7974 18.1648 88.3146 21.2509 88.3378 25.8685ZM70.4708 33.6186L73.7426 33.5954L76.9679 23.1536L80.2861 33.549L83.5578 33.5257L88.3842 18.1416L84.2307 18.1648L81.9335 30.8573L78.7082 18.188L75.274 18.2112L72.1415 30.9269L69.6587 18.2576L65.5052 18.2808L70.4708 33.6186ZM55.7596 26.611L58.8921 14.7538L62.1406 26.5646L55.7596 26.611ZM50.2139 33.7114L53.8801 33.6882L55.0867 29.1634L62.8368 29.1402L64.0666 33.6418L67.7328 33.6186L60.6788 11.9926L57.0822 12.0158L50.2139 33.7114Z" fill="#21205F"/>
<path d="M40.6766 25.8452C40.5838 25.6364 40.4445 25.4739 40.3285 25.2883C40.1893 25.1027 40.0501 24.9402 39.8877 24.801C39.7252 24.6618 39.5396 24.569 39.3076 24.4762C39.1219 24.4298 38.8899 24.4066 38.6579 24.4298C38.217 24.4762 37.7761 24.6386 37.3816 24.8242C36.5695 25.2187 35.8038 25.7292 35.0613 26.2629C34.3187 26.7966 33.5994 27.3534 32.8801 27.9103L30.931 29.4186C30.2813 29.9291 29.6083 30.3931 28.9586 30.8804C28.2857 31.3445 27.6128 31.8318 26.9167 32.2495L25.8725 32.8992L24.7819 33.4793C24.0626 33.8969 23.2737 34.1986 22.5079 34.5466L20.7677 35.1731L20.1411 35.3356L18.9113 35.6372C18.4937 35.73 18.076 35.7764 17.6583 35.8693C16.823 36.0317 15.9877 36.0781 15.1523 36.1477C14.317 36.1709 13.4816 36.2173 12.6463 36.1941L11.3933 36.1709L10.1403 36.0781C10.0243 36.0781 9.93145 36.0549 9.81543 36.0549C14.6418 39.5355 20.9765 40.9045 27.1951 39.2106C33.8778 37.4007 38.8667 32.5047 41.0014 26.4949L40.6766 25.8452Z" fill="#21205F"/>
<path d="M41.4887 16.1689C41.3495 16.1689 41.1174 16.1921 40.9086 16.2618C40.4909 16.3778 40.0501 16.5866 39.6092 16.8187C38.7274 17.2827 37.8921 17.886 37.0568 18.4661L34.5275 20.276C33.669 20.8793 32.8105 21.4594 31.9519 22.0395C31.511 22.318 31.0702 22.5732 30.6293 22.8517C30.1884 23.1301 29.7244 23.3621 29.2603 23.6174C28.8194 23.8727 28.3321 24.1047 27.868 24.3368C27.404 24.5688 26.9399 24.8009 26.4526 24.9633C25.9653 25.1489 25.5012 25.3809 24.9908 25.5202L23.4825 25.9842L21.951 26.3323C21.4406 26.4483 20.9301 26.4947 20.4196 26.5643C19.9091 26.6572 19.3754 26.6804 18.8649 26.7036C18.3312 26.75 17.8207 26.7732 17.3103 26.75C16.7766 26.75 16.2661 26.7732 15.7556 26.75C15.2219 26.7268 14.7114 26.7268 14.2009 26.6804C13.1568 26.6108 12.1358 26.5411 11.0916 26.4251L8.00552 26.1003C6.98455 26.0075 5.94037 25.9146 4.9194 25.9378C4.40892 25.9378 3.89843 25.9842 3.43436 26.1003C3.20232 26.1467 3.01669 26.2163 2.83105 26.3323C3.66639 28.8151 4.96581 31.0195 6.59008 32.899C6.6829 32.9222 6.75251 32.9222 6.84532 32.9222C7.95911 33.0846 9.07289 33.2239 10.1867 33.3399C11.3005 33.4559 12.4142 33.5487 13.528 33.5719C14.0849 33.5719 14.6418 33.5951 15.1987 33.5719C15.7556 33.5487 16.3125 33.5255 16.8462 33.4791C17.3799 33.4095 17.9368 33.3399 18.4705 33.2703L20.0947 32.9222L21.6726 32.4349C22.1831 32.2493 22.6936 32.0173 23.204 31.8084C23.7145 31.5764 24.2018 31.3211 24.6891 31.0891C25.1764 30.8339 25.6637 30.5322 26.151 30.277C27.1023 29.6969 28.0305 29.0936 28.9354 28.4439C29.8404 27.7941 30.7453 27.1212 31.6271 26.4483C32.532 25.7754 33.437 25.1025 34.3883 24.4528C35.3397 23.8263 36.3375 23.2229 37.4744 22.8981C38.0313 22.7588 38.6578 22.6892 39.2611 22.8053C39.8412 22.9213 40.4213 23.1997 40.839 23.6174C41.0478 23.8263 41.2567 24.0351 41.4423 24.2672C42.0224 21.6915 42.0688 18.9535 41.5119 16.2154L41.4887 16.1689Z" fill="#21205F"/>
<path d="M9.49061 24.1284C10.6276 24.2676 11.7646 24.3836 12.8784 24.4997C14.0154 24.5925 15.1291 24.6621 16.2661 24.6853C16.823 24.6853 17.4031 24.6853 17.96 24.6621C18.5169 24.6157 19.0738 24.5925 19.6307 24.5461C20.1876 24.4533 20.7445 24.4068 21.2782 24.2908L22.8792 23.9196L24.5035 23.3858C25.014 23.177 25.5013 22.9449 26.0118 22.7361C26.5223 22.5041 27.0095 22.2256 27.4968 21.9704C27.9841 21.7151 28.4714 21.3903 28.9355 21.1118C29.8868 20.5085 30.7918 19.882 31.6967 19.2091C32.3928 18.6986 33.0658 18.1649 33.7619 17.6312C32.8105 17.9329 31.8824 18.1881 31.0006 18.4434L30.8846 18.4666C30.6525 18.513 30.4437 18.5594 30.2117 18.629C29.7476 18.745 29.2835 18.8611 28.773 18.9539L28.6802 18.9771C28.4714 19.0003 28.2393 19.0467 28.0305 19.0931C27.5664 19.1859 27.1024 19.2555 26.5919 19.3483L26.4527 19.3715L25.7565 19.4411C25.3157 19.4876 24.8748 19.534 24.4107 19.5804L24.1786 19.6036L21.9279 19.65L19.5843 19.4876C19.1202 19.4411 18.6561 19.3715 18.1921 19.3019C17.96 19.2787 17.7512 19.2323 17.5191 19.2091L17.3799 19.1859C16.8926 19.0931 16.4518 19.0003 16.0109 18.9075C15.7789 18.861 15.5468 18.8146 15.3148 18.7682L15.222 18.745C14.7347 18.629 14.2706 18.4898 13.8297 18.3738C13.5977 18.3042 13.3889 18.2345 13.1568 18.1881L13.0408 18.1649C11.7414 17.7705 10.3956 17.3064 8.98012 16.7727C7.58789 16.239 6.24206 15.6821 5.08187 15.218C4.75702 15.0788 4.20013 14.8468 3.50401 14.5451C3.15595 14.4059 2.78469 14.2435 2.36702 14.0811C1.34605 17.2832 1.16042 20.787 1.92615 24.2675C2.11178 24.1979 2.29741 24.1283 2.48304 24.0819C3.68964 23.7803 4.87304 23.8035 6.03323 23.8731C7.21663 23.8731 8.35362 23.9892 9.49061 24.1284Z" fill="#F7923A"/>
<path d="M16.6157 4.01091C18.9129 6.30809 23.7625 10.1135 36.5942 6.60974C32.9048 2.66508 27.6143 0.205475 21.7438 0.228678C19.377 0.228678 17.103 0.646349 15.0146 1.41208C15.2931 2.27062 15.7804 3.17557 16.6157 4.01091Z" fill="#F7923A"/>
<path d="M39.936 11.459C39.6344 10.8557 39.3095 10.2756 38.9615 9.69549C35.0168 10.3916 31.4666 10.7629 28.3341 10.7629C21.7906 10.7861 17.0338 9.32423 14.1333 6.35413C13.0195 5.21714 12.3234 3.98734 11.8826 2.82715C8.40198 4.77627 5.57111 7.74637 3.80762 11.3198C7.68266 13.733 21.837 20.8797 39.936 11.459Z" fill="#F7923A"/>
<path d="M69.8914 11.7609C70.0306 11.877 70.1234 12.0162 70.1234 12.1322C70.1234 12.2018 70.0306 12.2482 69.8682 12.2946C69.1721 12.3874 68.6616 12.4338 68.3599 12.4338C68.1975 12.4338 68.0583 12.341 67.8958 12.1322C67.803 11.993 67.7102 11.5057 67.5942 10.6471C67.4782 9.69579 67.3389 9.06929 67.1765 8.74443C66.9677 8.28036 66.666 8.02511 66.2948 8.02511C66.1788 8.02511 66.0163 8.04832 65.8539 8.11793C65.6915 8.30356 65.4362 8.76764 65.0882 9.53336C64.7169 10.3455 64.5081 10.972 64.5081 11.4593C64.5081 11.6913 64.5777 11.8073 64.6937 11.8538C64.8793 11.9234 64.949 11.9698 64.9722 12.0162C64.9722 12.0858 64.8793 12.1322 64.6705 12.1554C64.0904 12.2482 63.4871 12.2714 62.8374 12.2946C62.4893 12.3178 62.3269 12.0858 62.3037 11.6681C62.3037 10.9256 62.6982 9.90463 63.5335 8.60521C63.6727 8.37317 64.044 7.88589 64.6009 7.12016C65.1114 6.42405 65.413 6.05279 65.4826 5.98318H65.4594C65.3202 5.98318 65.1114 6.00638 64.8561 6.07599C64.5777 6.1224 64.3689 6.1688 64.2296 6.1688C63.9976 6.1688 63.8816 6.1456 63.8352 6.05279C63.7656 5.93677 63.7424 5.70473 63.7424 5.33346C63.7424 5.37987 63.7424 5.37987 63.7656 5.31026V4.73016C63.7656 4.17327 63.6959 3.87162 63.5567 3.82521C63.3711 3.7324 63.2783 3.68599 63.2783 3.61638C63.2783 3.54677 63.6031 3.45395 64.276 3.36114C64.8097 3.29152 65.1114 3.24512 65.1346 3.24512C65.5058 3.24512 65.6915 3.36114 65.6915 3.56997C65.6915 3.63958 65.7147 3.70919 65.7147 3.80201V4.3125C65.7147 4.9158 65.7611 5.42628 65.8539 5.79754L66.2716 5.75114C66.3412 5.75114 66.5268 5.70473 66.7821 5.65832C67.0141 5.61191 67.1765 5.58871 67.2925 5.61191C67.455 5.61191 67.5246 5.63512 67.5246 5.70473C67.5246 5.79754 67.3157 6.09919 66.9213 6.60968C66.5036 7.14337 66.2252 7.53783 66.1323 7.76987C66.1091 7.79307 66.1324 7.79308 66.1788 7.79308C66.3876 7.79308 66.7124 7.72347 67.1533 7.60745C67.571 7.46822 67.8958 7.42181 68.1279 7.42181C68.2439 7.42181 68.3367 7.42181 68.4063 7.44502C69.0096 7.65385 69.4041 8.76763 69.5897 10.7632C69.6361 11.2504 69.6593 11.5289 69.6593 11.5521C69.6593 11.5753 69.7522 11.6449 69.8914 11.7609Z" fill="#F7923A"/>
<path d="M76.4586 4.10369C76.389 4.10369 76.3194 4.10369 76.2962 4.12689C76.2497 4.1965 76.1801 4.7766 76.0641 5.86718L75.9017 7.60747C75.9713 7.63067 76.0409 7.65387 76.1337 7.65387C76.3194 7.65387 76.4818 7.58426 76.6442 7.44504C77.0387 7.09698 77.2243 6.40087 77.2243 5.3799V5.17106C77.1779 4.45174 76.9459 4.10369 76.4586 4.10369ZM73.1868 5.24067C72.978 5.68155 72.862 6.19203 72.8852 6.77213C72.8852 7.12019 72.9084 7.32902 72.9316 7.42183C73.0012 7.65387 73.1636 7.76989 73.4189 7.76989C73.6741 7.76989 73.8597 7.67708 73.999 7.46825C74.1846 6.05281 74.3238 5.00863 74.3934 4.26611C73.8365 4.38213 73.4421 4.70698 73.1868 5.24067ZM78.7326 7.07378C78.3845 7.49145 77.9436 7.76989 77.4099 7.90912C77.0387 8.00193 76.7602 8.04834 76.5746 8.04834C76.4586 8.04834 76.2033 8.02514 75.8089 7.95553C75.5536 9.71902 75.4144 10.7632 75.368 11.1345C75.3448 11.3433 75.3448 11.5289 75.3912 11.6449C75.3912 11.6681 75.4376 11.7146 75.5072 11.7842C75.5768 11.8538 75.6 11.9002 75.6 11.9234C75.6 12.0162 75.484 12.0626 75.252 12.0858C74.6023 12.1554 74.2078 12.2018 74.0918 12.2018C73.6277 12.2018 73.3957 12.0394 73.3957 11.7145C73.3957 11.3897 73.4653 10.74 73.6277 9.74222C73.7901 8.69805 73.8597 8.11795 73.8597 8.00193C73.3725 8.18756 72.9316 8.28038 72.5139 8.28038C71.4233 8.28038 70.8896 7.74669 70.8896 6.65611C70.8896 5.75116 71.2609 5.05504 72.0034 4.59097C72.6067 4.1965 73.3957 3.96446 74.4166 3.89485C74.9735 3.84844 75.6 3.82523 76.2729 3.80203C76.5746 3.75562 76.853 3.73242 77.1547 3.73242C77.4331 3.73242 77.6884 3.75562 77.8972 3.80203C78.3149 3.91805 78.6397 4.12689 78.8718 4.47495C79.1038 4.82301 79.2198 5.19427 79.2198 5.63514C79.243 6.16883 79.0806 6.65611 78.7326 7.07378Z" fill="#F7923A"/>
<path d="M87.6414 4.10328C86.7828 4.10328 86.2955 3.84803 86.1795 3.31435L85.3906 3.36075C85.3906 3.49997 85.5298 3.77842 85.8547 4.19609C86.1331 4.56735 86.3188 4.79939 86.3884 4.869C86.5972 5.07784 86.8524 5.21706 87.1309 5.26347C87.6646 5.49551 87.943 5.93638 87.943 6.58608C87.943 6.77172 87.9198 6.95735 87.8966 7.14298C87.6182 8.92968 87.4789 10.1131 87.4789 10.7164V10.8092C87.5022 10.9948 87.5254 11.2269 87.595 11.4821C87.6646 11.8302 87.7342 11.9926 87.7806 11.9926C87.8038 11.9926 87.8038 11.9694 87.8038 11.8998C87.8038 11.9694 87.6878 12.0158 87.4557 12.039L86.3884 12.1318C86.0635 12.1318 85.8315 11.9926 85.7155 11.6677C85.669 11.5517 85.6458 11.3661 85.6458 11.1108C85.6458 10.8092 85.669 10.5772 85.6923 10.3915C85.7851 9.649 85.8547 8.99929 85.9243 8.4888L86.0403 7.60706C86.1563 6.70211 86.2027 6.21483 86.2027 6.16842C86.2027 5.58832 86.0171 5.30987 85.6226 5.33308C85.2746 5.35628 84.9729 5.68114 84.6713 6.30764C84.4392 6.81813 84.3 7.2822 84.2304 7.69987C84.1144 8.48881 84.0216 9.50978 83.952 10.7396C83.9288 11.2501 83.9752 11.5517 84.1608 11.6677C84.2536 11.7606 84.3232 11.807 84.3232 11.8302C84.3232 11.8998 84.2072 11.9462 83.9752 11.9694C83.3719 12.039 83.0006 12.0622 82.8614 12.0622C82.5365 12.0622 82.3277 11.9462 82.2117 11.6909C82.1653 11.5749 82.1421 11.3429 82.1421 10.9484C82.1421 10.1363 82.2117 9.23133 82.3277 8.23356C82.4205 7.46783 82.6525 6.86453 82.9774 6.40046C83.3023 5.98279 83.8127 5.56512 84.5321 5.21706C84.3232 4.98502 83.952 4.40493 83.3719 3.43037H82.6758C82.4669 4.03367 81.6548 4.35852 80.2625 4.33531C80.1233 4.33531 80.0537 4.31211 80.0537 4.2193C80.0537 4.19609 80.1233 4.05686 80.2857 3.80162C80.425 3.52318 80.5178 3.36075 80.5178 3.26794C80.541 3.24473 80.541 3.22153 80.541 3.17512C80.541 3.08231 80.4714 2.91988 80.3786 2.71104L80.1929 2.38619C80.1929 2.24697 80.541 2.17735 81.2603 2.17735C82.0724 2.17735 82.5365 2.479 82.6989 3.12871L86.0867 2.96628C86.2491 2.29337 86.806 1.94531 87.8038 1.94531C87.8734 1.94531 87.9662 1.94531 88.059 1.96852C88.4767 1.99172 88.6856 2.03813 88.6856 2.10774C88.6856 2.06133 88.6159 2.17735 88.4999 2.40939C88.3839 2.64142 88.3375 2.85026 88.3375 2.96628V3.0823C88.3839 3.31434 88.4999 3.54638 88.732 3.77842C88.732 3.82482 88.6623 3.87123 88.5463 3.91764C88.3143 4.05686 88.0126 4.10328 87.6414 4.10328Z" fill="#F7923A"/>
<path d="M99.591 11.8998C99.591 12.0622 99.3358 12.1318 98.8485 12.1318C98.7325 12.1318 98.5701 12.155 98.338 12.1782C98.106 12.2014 97.9435 12.2246 97.8275 12.2246C97.5259 12.2246 97.317 12.1086 97.2706 11.8766C97.2474 11.7837 97.2242 11.5517 97.2242 11.134C97.2242 10.786 97.2242 10.2523 97.2706 9.53296C97.2938 8.62801 97.317 8.23354 97.317 8.32636C97.317 8.18714 97.3402 7.79267 97.3867 7.18937C97.4331 6.67889 97.4331 6.28443 97.4331 5.98278C97.4331 4.68336 97.0386 4.03365 96.2729 4.03365C95.832 4.03365 95.5303 4.3121 95.3679 4.9154C95.2751 5.21705 95.2055 5.61151 95.1591 6.09879C95.0663 7.18938 95.0199 7.86229 95.0199 8.14073C95.0199 8.83685 95.1359 9.25452 95.3447 9.39374C95.4607 9.46335 95.5303 9.53297 95.5303 9.55617C95.5303 9.60258 95.2983 9.67219 94.8574 9.7418C94.3237 9.81141 94.0221 9.83461 93.9293 9.83461C93.558 9.83461 93.3492 9.64898 93.2564 9.27772C93.2332 9.1617 93.21 8.81364 93.21 8.25675C93.21 6.58607 93.4652 5.42588 94.0221 4.79938C94.3237 4.45132 94.8342 4.17287 95.5303 3.91763C96.1801 3.70879 96.7602 3.59277 97.2938 3.59277C97.9436 3.59277 98.4308 3.80161 98.7789 4.24249C99.1037 4.63695 99.243 5.14743 99.2198 5.79714V6.09879C99.1966 7.00375 99.1734 7.58384 99.1502 7.86228L99.0805 8.67442C99.0341 9.44015 99.0109 10.1363 99.0109 10.8324V11.134C99.0109 11.25 99.0341 11.3661 99.1037 11.5053C99.1734 11.6677 99.243 11.7605 99.3358 11.7837C99.5214 11.7837 99.591 11.8534 99.591 11.8998Z" fill="#F7923A"/>
<path d="M106.575 7.93249L106.227 8.5822C105.717 9.57996 105.299 10.4385 104.998 11.2042C104.951 11.2971 104.951 11.3667 104.951 11.4363C104.951 11.5523 104.998 11.6219 105.114 11.6683C105.16 11.6915 105.206 11.7147 105.206 11.7611C105.206 11.8307 105.114 11.8771 104.905 11.9004C104.162 12.0164 103.698 12.086 103.489 12.086C103.072 12.086 102.816 11.9236 102.77 11.5755V11.5291C102.77 11.3435 102.932 10.9258 103.28 10.2761L103.675 9.57997C104.487 8.07172 104.905 7.14356 104.905 6.8187V6.72589C104.789 6.63307 104.603 6.58666 104.371 6.60987C104.301 6.60987 104.116 6.63308 103.837 6.65628C103.629 6.67948 103.466 6.70268 103.373 6.70268C103.188 6.70268 103.095 6.65628 103.095 6.54026L103.211 6.28502C103.35 5.98337 103.443 5.75132 103.512 5.65851C103.791 5.12482 103.953 4.63754 104.069 4.17346C103.977 3.87181 103.745 3.70939 103.373 3.70939C103.234 3.70939 103.095 3.73259 102.956 3.8022C102.77 3.87181 102.677 3.94142 102.677 4.03424C102.677 4.61434 102.468 5.07841 102.051 5.42647C101.633 5.77453 101.146 5.96016 100.542 5.96016H100.38C100.264 5.96016 100.194 5.91376 100.194 5.86735L100.403 5.47288C100.542 5.21764 100.612 5.03201 100.635 4.91599C100.635 4.89279 100.658 4.84638 100.635 4.77677C100.635 4.68395 100.589 4.54473 100.542 4.3591C100.473 4.17347 100.45 4.03424 100.45 3.96463C100.45 3.89502 100.519 3.8254 100.635 3.8022C102.027 3.50055 103.095 3.36133 103.837 3.36133C104.649 3.36133 105.299 3.47735 105.763 3.73259C105.949 3.82541 106.042 4.01104 106.042 4.24308C106.042 4.42871 105.879 4.89278 105.578 5.68171C105.392 6.14579 105.299 6.37783 105.299 6.42424C105.299 6.54026 105.392 6.58667 105.554 6.56347C105.694 6.56347 105.879 6.54026 106.135 6.49385C106.39 6.44744 106.575 6.42424 106.715 6.42424C107.016 6.42424 107.179 6.51705 107.179 6.70268C107.063 6.86511 106.9 7.28278 106.575 7.93249Z" fill="#F7923A"/>
<path d="M115.093 10.5772C115.047 11.1341 115.117 11.4358 115.302 11.5054C115.372 11.5286 115.395 11.5518 115.395 11.5982C115.395 11.691 115.302 11.7374 115.093 11.7838C114.351 11.923 113.91 11.9927 113.724 11.9927C113.283 11.9927 113.075 11.807 113.075 11.4358V11.2965C113.075 11.0645 113.167 10.2292 113.353 8.83692C113.516 7.65353 113.585 6.8878 113.585 6.49333C113.585 6.07566 113.516 5.77401 113.423 5.58838C113.283 5.30994 113.005 5.17072 112.634 5.17072C112.17 5.17072 111.775 5.40275 111.427 5.89003C111.172 6.26129 110.986 6.70217 110.87 7.23586C111.102 7.18945 111.265 7.16624 111.381 7.16624C111.52 7.16624 111.59 7.21265 111.566 7.30547C111.566 7.35188 111.566 7.37508 111.543 7.39828C111.358 7.93197 111.242 8.30324 111.172 8.48887C110.963 9.20819 110.801 9.95071 110.661 10.7164C110.638 10.8557 110.638 10.9949 110.638 11.1341C110.638 11.3893 110.708 11.5518 110.847 11.5982C110.94 11.6446 110.986 11.6678 110.986 11.7142C110.986 11.807 110.824 11.8766 110.476 11.923C109.78 12.0159 109.408 12.0623 109.339 12.0623C108.898 12.0623 108.689 11.8302 108.689 11.3197C108.689 10.8325 108.782 10.2059 108.968 9.48663C109.176 8.7209 109.408 8.16401 109.687 7.76955H109.664H109.548L109.316 7.81596C109.107 7.83916 108.944 7.86236 108.852 7.86236C108.759 7.86236 108.712 7.83916 108.689 7.81596C108.666 7.79275 108.666 7.72314 108.666 7.63032C108.666 7.11984 109.014 6.51654 109.757 5.82042C109.617 5.82042 109.432 5.84363 109.153 5.91324C108.898 5.95964 108.689 6.00605 108.55 6.00605C108.411 6.00605 108.341 5.98285 108.318 5.93644C108.248 5.82042 108.202 5.54198 108.202 5.12431V4.89227V4.56742C108.202 4.40499 108.225 4.28897 108.225 4.21936V3.96411C108.225 3.38402 108.132 3.05916 107.97 3.01275C107.854 2.98955 107.784 2.94314 107.784 2.87353C107.784 2.80392 107.923 2.71111 108.225 2.61829C108.898 2.43266 109.408 2.33984 109.757 2.33984C110.012 2.33984 110.128 2.38625 110.151 2.50227V2.80392C110.151 2.89674 110.151 3.22159 110.128 3.77849C110.105 4.14975 110.105 4.52101 110.105 4.84587C110.105 5.17072 110.128 5.37955 110.174 5.49557C110.453 5.35635 110.847 5.19392 111.358 5.00829C112.03 4.77625 112.634 4.68343 113.167 4.68343C113.4 4.68343 113.585 4.70664 113.724 4.72985C114.328 4.84587 114.769 5.0547 115.024 5.30994C115.302 5.61159 115.441 6.05246 115.441 6.63256C115.441 6.98062 115.418 7.32867 115.395 7.65353C115.279 8.92974 115.163 9.8811 115.093 10.5772Z" fill="#F7923A"/>
</svg>
