<svg width="52" height="50" viewBox="0 0 52 50" fill="none" xmlns="http://www.w3.org/2000/svg">
<path d="M26.393 18.9345C20.3576 18.9345 14.2993 18.9148 8.26701 19.0624C7.15036 19.0898 6.02977 19.0634 4.91273 19.0634C4.42681 19.0634 3.83769 18.9734 3.3646 19.0904C2.68394 19.2587 1.41867 20.1343 0.933912 20.6436C0.579777 21.0157 0.784388 22.1204 0.784388 22.6082C0.784388 24.4343 0.848893 26.2581 0.848893 28.0866V50H51.9371V0.0502928C47.1506 0.0502928 42.3309 -0.0968492 37.5524 0.112231C36.3317 0.165596 35.0976 0.114755 33.8756 0.114755C33.3786 0.114755 32.7425 0.00969908 32.263 0.147624C31.6754 0.31668 31.1037 0.876568 30.5859 1.19805C29.1483 2.09044 27.737 3.04406 26.3285 3.98183C24.8296 4.97979 23.3117 5.94836 21.8131 6.94658C21.487 7.16385 20.3871 7.63537 20.3309 8.04825C20.2957 8.30715 20.6053 8.66498 20.7256 8.88012C21.1104 9.56885 21.4962 10.2574 21.8873 10.9426C23.4033 13.5977 24.8499 16.2954 26.393 18.9345ZM14.9756 0.179195V13.714H14.9111C14.2369 12.4425 12.2611 12.3829 11.1698 13.0663C9.80501 13.921 9.44591 15.9402 10.4814 17.1943C10.793 17.5717 11.1645 17.8769 11.6213 18.0569C12.146 18.2638 12.6819 18.3009 13.2339 18.2169C13.952 18.1075 14.4753 17.6928 14.9756 17.1943C14.9756 17.4509 14.8982 18.7119 15.5172 18.2237C15.7314 18.0548 15.6206 17.4379 15.6206 17.1943V14.1651V3.98182C15.6206 2.80919 15.9748 1.03498 14.9756 0.179195ZM14.4595 1.85493C14.0409 3.31803 13.235 4.78462 12.6086 6.17316C12.3527 6.74033 12.1736 7.54732 11.7697 8.02433C11.3622 8.50571 10.4819 8.36856 10.0593 8.83358C9.49777 9.45153 9.10939 10.3561 8.67984 11.0715C7.82612 12.4932 6.95329 13.9036 6.09963 15.3252C5.56662 16.2128 4.62839 17.2807 4.39669 18.29H11.0407C10.3894 17.4905 9.6949 17.0098 9.52093 15.9053C9.23524 14.0916 10.7198 12.363 12.5244 12.2373C13.2712 12.1853 13.8497 12.5023 14.524 12.7472V5.07749C14.524 4.17272 14.8082 2.68525 14.4595 1.85493ZM16.2012 2.37054V18.29H16.7817V17.2588C17.3489 17.6575 17.7463 18.0749 18.4589 18.2087C18.8995 18.2915 19.3103 18.2829 19.749 18.1818C22.7724 17.4846 22.3466 13.1059 19.4264 12.6466C18.9992 12.5794 18.5476 12.6314 18.1363 12.7614C17.606 12.9289 17.1731 13.2665 16.7817 13.6495V5.5931C16.7817 4.52856 17.0337 3.19345 16.2012 2.37054ZM17.2333 4.23962V12.7472C18.1696 12.3577 18.992 12.063 20.007 12.394C22.8014 13.3051 22.8015 16.6814 20.652 18.2255V18.29H24.9094L23.2522 15.1319L19.8334 8.88011L18.0347 5.5931L17.2333 4.23962ZM12.5889 13.2177C15.2874 12.9525 15.8212 17.3043 13.1049 17.6336C10.0774 18.0006 9.5397 13.5174 12.5889 13.2177ZM18.9104 13.2177C21.6029 12.953 22.1301 17.3058 19.4264 17.6336C16.396 18.001 15.8604 13.5176 18.9104 13.2177ZM10.3957 30.149V30.2135C10.8283 30.2135 11.3314 30.1433 11.7503 30.2643C13.3555 30.7279 12.3316 33.2213 12.3308 34.3383L11.4278 34.4672C11.2727 33.5283 11.982 32.3939 11.6469 31.5028C11.4358 30.9415 10.6066 31.1211 10.1377 31.1155C9.73038 31.1107 9.2026 30.8044 8.82917 30.8874C7.91339 31.091 7.20048 31.9163 6.26734 32.0826L5.88031 31.3091L8.20251 30.149C7.96042 29.522 7.8076 28.956 7.81573 28.2799C7.8216 27.7894 7.98164 27.3456 8.23173 26.9265C8.46949 26.5279 8.77112 26.1971 9.17009 25.955C11.5814 24.4914 13.8789 27.5666 11.6848 29.4101C11.3099 29.7252 10.8686 30.0129 10.3957 30.149ZM22.0712 25.6374V26.6042H19.2974V27.5065C22.7212 27.9483 21.8131 31.9172 21.8131 34.4028L20.9101 34.3383V31.1158C20.9101 30.6064 21.0102 29.9772 20.7862 29.5045C20.1276 28.114 17.8864 28.0699 17.1277 29.3756C16.814 29.9155 16.9107 30.5806 16.9107 31.1802C16.9107 32.2364 16.8462 33.2822 16.8462 34.3383H15.9432C15.9432 32.7485 15.5506 30.5375 16.1934 29.0533C16.4345 28.4967 16.8848 28.0752 17.4268 27.815C17.67 27.6981 18.1761 27.6531 18.328 27.4218C18.4636 27.2156 18.3944 26.8403 18.3944 26.6042H15.6206V25.6374H22.0712ZM26.522 28.0866V28.151C27.2359 28.2074 28.4962 27.9343 28.9924 28.609C29.2794 28.9991 29.178 29.5963 29.0326 30.0201C28.6661 31.0894 28.0434 32.1043 27.5382 33.1138C27.3768 33.4363 27.1508 34.2245 26.8194 34.3942C26.589 34.5122 26.2167 34.2326 26.006 34.145C26.3562 32.9301 27.1656 31.7314 27.7317 30.6002C27.8774 30.309 28.3781 29.6007 28.1914 29.2672C28.0651 29.0417 27.6375 29.1181 27.4251 29.1178C26.8861 29.1171 25.8256 29.129 25.6469 28.473C25.4308 27.6789 26.5512 26.7899 27.2316 26.6686V26.6042L23.4258 26.5397V25.6374C24.6779 25.6374 26.3661 25.344 27.5541 25.7731C28.9994 26.2952 27.2058 27.7917 26.522 28.0866ZM9.04107 29.6979C9.50119 29.5887 9.97531 29.3815 10.3957 29.1656C10.6707 29.0242 10.9283 28.8543 11.1511 28.6383C11.7836 28.0252 11.9576 26.8372 10.9117 26.5358C10.1257 26.3093 9.31954 26.8179 8.96502 27.5065C8.79737 27.8322 8.71223 28.172 8.71951 28.5377C8.72764 28.9426 8.85336 29.342 9.04107 29.6979ZM36.5849 34.4672H36.0043V31.1802C36.0043 30.5817 36.0662 30.0572 35.4882 29.6975C34.8621 29.3077 33.9298 29.504 33.6323 30.2135C33.5 30.5292 33.6306 30.9261 33.4555 31.2241C33.3584 31.3893 33.1014 31.3936 33.0115 31.2167C32.9201 31.037 32.9684 30.7315 32.9735 30.5357C33.0137 28.9974 34.9638 28.4453 36.0679 29.3363C36.6269 29.7876 36.5849 30.4017 36.5849 31.0513L36.5849 34.4672ZM39.8101 30.6002V30.6646C40.2364 30.6646 40.9191 30.5391 41.2683 30.8388C41.5732 31.1005 41.4917 31.5607 41.363 31.8892C41.0051 32.8032 40.4986 33.7489 40.0036 34.5962L39.4876 34.3383C39.8956 33.3591 40.798 32.3068 40.9067 31.2447C40.4589 31.2447 39.8228 31.3336 39.4378 31.0508C38.8084 30.5884 39.8639 29.8456 40.2617 29.6979V29.6334H37.875V29.0533C38.6259 29.0533 39.4581 28.9534 40.1972 29.0932C40.9948 29.2441 40.8204 29.8273 40.3259 30.266C40.1677 30.4064 39.9998 30.51 39.8101 30.6002ZM46.8412 34.4672H46.2607V32.0181C46.2607 31.6574 46.3394 31.1879 46.1592 30.8606C45.6709 29.9731 44.179 30.22 43.874 31.1158C44.0023 31.117 44.1348 31.1113 44.2613 31.138C45.4507 31.3882 43.8718 32.6573 43.6578 33.0493C43.4124 33.4988 43.4224 33.9716 43.4224 34.4672H42.8419C42.8419 33.4044 43.0184 32.3041 44.0675 31.7603V31.6958C43.9578 31.6911 43.8519 31.6858 43.7434 31.6675C42.8601 31.5186 43.4912 30.9292 43.4352 30.4068C43.3958 30.0388 43.068 29.5759 42.9709 29.1822C43.765 28.9482 43.4518 29.7818 44.0677 29.8926C44.6969 30.0057 45.2561 29.6108 45.9381 29.8868C47.396 30.4764 46.8412 33.1999 46.8412 34.4672ZM19.4264 37.4965V39.9456C20.1661 39.2132 21.5518 38.9539 21.968 40.2034C22.2786 41.1357 22.0712 42.387 22.0712 43.3615H21.3616C21.3616 42.4937 21.7177 40.6002 20.8446 40.0654C20.3565 39.7664 19.7779 40.1316 19.5587 40.5902C19.202 41.3363 19.4264 42.5492 19.4264 43.3615H18.6524V37.4965H19.4264ZM5.8158 43.3615V37.8832C6.91233 37.8832 8.20573 37.7688 9.17008 38.3966C10.5515 39.2958 10.5608 41.8414 9.23452 42.7951C8.24308 43.508 6.96748 43.3615 5.8158 43.3615ZM6.58987 38.5277V42.717C7.2764 42.717 7.99873 42.7763 8.58947 42.3536C9.61136 41.6225 9.70645 39.6508 8.65378 38.891C8.05614 38.4597 7.28575 38.5277 6.58987 38.5277ZM44.8416 38.7855V41.4924C45.3875 40.9469 45.8265 40.2685 46.6477 40.2679C46.4043 40.7893 45.8318 41.2435 45.3576 41.5569V41.6213C45.8695 42.0638 46.5553 42.7481 46.8412 43.3615C45.8217 43.3615 45.4923 42.4942 44.8416 41.8147V43.3615H44.261V38.7855H44.8416ZM35.8108 41.1057V41.1702C36.6787 41.3272 36.9823 42.5158 36.2595 43.0626C35.6448 43.5277 34.6617 43.3615 33.9401 43.3615V40.4612C33.9401 40.1293 33.8304 39.559 33.979 39.2571C34.0793 39.0535 34.3997 39.1078 34.5852 39.1077C35.1043 39.1075 35.7553 39.0731 36.1859 39.4171C36.8195 39.9234 36.5295 40.8923 35.8108 41.1057ZM14.137 43.3615H13.4919V42.7815C12.9437 43.241 12.3665 43.6022 11.6213 43.3455C10.7269 43.0374 10.6213 41.8108 11.3642 41.2765C11.9315 40.8685 12.7652 40.9124 13.4274 40.9124C13.2603 39.6793 12.2392 39.8396 11.3633 40.2034C11.3633 40.0268 11.3162 39.7545 11.4296 39.6042C11.8909 38.9928 13.4483 39.2995 13.8378 39.8193C14.4645 40.6556 14.137 42.3703 14.137 43.3615ZM26.522 41.5569H23.6838C24.072 43.0516 24.9746 42.8632 26.1995 42.6526C26.1988 43.6043 25.0149 43.5943 24.2643 43.3751C23.3891 43.1196 22.9426 42.1621 22.9809 41.2991C23.0433 39.8951 24.6672 38.5362 25.9355 39.7016C26.4433 40.1682 26.5216 40.9072 26.522 41.5569ZM30.0053 43.3615C30.0053 42.5382 30.3246 40.8624 29.7219 40.2179C29.2692 39.7337 28.5612 40.0198 28.2694 40.5257C27.8382 41.2733 28.0702 42.5284 28.0702 43.3615H27.3606V39.43H28.0056V40.0745C28.195 39.8429 28.3784 39.6217 28.6507 39.4841C28.8298 39.3936 29.0325 39.3438 29.2313 39.32C30.7845 39.1344 30.7794 40.8738 30.7794 41.9436C30.7794 42.2592 30.9164 43.0017 30.7131 43.2582C30.5764 43.4306 30.199 43.3615 30.0053 43.3615ZM17.5558 39.4944V40.0745C17.1478 40.0146 16.081 39.5922 15.9271 40.2706C15.8552 40.5877 16.2997 40.8326 16.5237 40.9567C17.0913 41.2711 17.8502 41.6009 17.7181 42.3947C17.5237 43.5636 15.1047 43.9617 15.1046 42.5881C15.4905 42.7454 17.2375 43.1572 16.8618 42.1395C16.6392 41.5365 15.6335 41.4657 15.2815 40.9114C14.3427 39.4332 16.7668 39.3459 17.5558 39.4944ZM34.5207 40.9124C34.7751 40.9124 35.0423 40.9351 35.2948 40.9002C35.4331 40.8811 35.5639 40.8377 35.6748 40.7504C36.5556 40.057 35.0098 39.1291 34.587 39.6622C34.3903 39.9103 34.5207 40.6064 34.5207 40.9124ZM23.7483 41.1057C24.1787 41.1057 25.3729 41.3157 25.7081 41.0395C25.9956 40.8026 25.5524 40.1877 25.3582 40.038C24.5584 39.422 23.7647 40.3327 23.7483 41.1057ZM39.7456 43.3615H39.2296V42.9104C38.7903 43.3265 38.2036 43.5933 37.6197 43.2686C37.0205 42.9353 37.1382 42.0072 37.6817 41.6915C38.1223 41.4355 38.6772 41.4924 39.1651 41.4924C39.0755 40.506 38.2388 40.6478 37.5524 40.9124C37.563 40.0225 39.0377 39.9979 39.497 40.6021C39.9964 41.259 39.7456 42.5835 39.7456 43.3615ZM43.3579 43.3615H42.7774C42.7774 42.6905 43.0328 41.3527 42.4478 40.8759C42.0562 40.5565 41.5869 40.8425 41.3877 41.2347C41.0842 41.832 41.2293 42.7132 41.2293 43.3615H40.7132V40.2679C41.1197 40.2727 41.2244 40.3774 41.2293 40.7835C41.7312 40.1408 42.8634 39.9269 43.2295 40.8482C43.5216 41.5832 43.3579 42.5851 43.3579 43.3615ZM13.4274 41.428C13.129 41.428 12.8214 41.4069 12.5244 41.4392C12.3712 41.4558 12.2138 41.491 12.0731 41.555C10.9684 42.0571 12.126 43.4666 13.0336 42.6379C13.165 42.5179 13.2635 42.3686 13.3234 42.2014C13.412 41.9538 13.4253 41.6879 13.4274 41.428ZM34.5207 41.428C34.5207 41.7587 34.3756 42.5404 34.587 42.807C34.7106 42.963 34.9977 42.907 35.1657 42.8828C35.9824 42.7649 36.4988 41.6115 35.4238 41.4418C35.132 41.3957 34.8156 41.428 34.5207 41.428ZM39.1651 41.8792C38.9306 41.8792 38.689 41.8627 38.4555 41.886C36.9513 42.0361 38.5235 43.8737 39.1 42.4592C39.175 42.2752 39.1645 42.0738 39.1651 41.8792Z" fill="#A3A3A3"/>
</svg>
