<svg width="137" height="40" viewBox="0 0 137 40" fill="none" xmlns="http://www.w3.org/2000/svg">
<g clip-path="url(#clip0_459_10873)">
<path fill-rule="evenodd" clip-rule="evenodd" d="M20.1298 22.3123C19.4606 22.6708 19.3758 22.7247 18.9983 22.7247C18.8332 22.7247 18.5346 22.549 18.2135 22.3286C18.2135 22.3286 18.0012 22.1878 17.3876 21.7893C16.9817 21.529 16.85 21.3644 16.495 21.3644C16.1336 21.3644 15.9442 21.5002 14.3876 22.3286C13.3505 22.8786 13.6124 23.052 14.1536 23.4058C15.7076 24.4151 14.8352 23.8475 16.9789 25.257C17.655 25.7038 18.0553 26.0306 18.4246 26.0306C18.7928 26.0306 19.4662 25.701 21.6401 24.5485C27.5777 21.3993 32.7283 18.6703 37.2242 16.2867L37.8062 12.9329L20.1298 22.3123Z" fill="#A3A3A3"/>
<path fill-rule="evenodd" clip-rule="evenodd" d="M17.6321 36.2098C16.5934 36.7526 16.5266 36.644 15.7779 36.1574C13.5949 34.748 6.22564 30.0194 4.61946 28.964C4.21172 28.695 3.70828 28.4727 3.45742 28.4826C3.12395 28.4924 3.01139 28.5991 2.15903 29.0496C0.29407 30.0276 0.422565 30.0332 0.855062 30.306C1.2712 30.5624 12.3734 37.7337 15.055 39.4612C15.3978 39.6854 15.6756 39.8192 16.0105 39.8192C16.3571 39.8192 16.8713 39.6854 17.3187 39.4477C24.2012 35.8368 30.0792 32.7585 35.1494 30.0988L35.7416 26.7219C30.605 29.4138 24.6383 32.5436 17.6324 36.2108L17.6321 36.2098Z" fill="#A3A3A3"/>
<path fill-rule="evenodd" clip-rule="evenodd" d="M18.2074 29.2432C17.6079 29.5551 17.4821 29.5993 17.0977 29.5993C16.877 29.5993 16.469 29.3279 15.954 29.0002C14.142 27.8584 11.1425 26.0337 10.9307 25.8927C10.9307 25.8927 10.7387 25.767 10.2195 25.4337C9.80445 25.1684 9.50782 24.938 9.14137 24.938C8.76546 24.938 8.76029 24.9515 7.97788 25.356C6.01448 26.3637 5.89426 26.442 6.27009 26.6803C8.62587 28.181 10.9557 29.6658 15.3405 32.4271C16.1309 32.9247 16.1517 32.9247 16.4875 32.9247C16.8479 32.9247 17.0054 32.9205 17.5897 32.617C24.6459 28.9691 30.6563 25.8573 35.8326 23.184L36.4321 19.8274C31.2621 22.4974 25.2543 25.6025 18.2077 29.2439L18.2074 29.2432Z" fill="#A3A3A3"/>
<path fill-rule="evenodd" clip-rule="evenodd" d="M20.0668 16.249C20.2296 16.249 20.5289 16.4261 20.8535 16.6474C20.8535 16.6474 21.0649 16.7881 21.682 17.1841C22.0883 17.4474 22.2231 17.6114 22.5734 17.6114C22.9371 17.6114 23.1284 17.4763 24.6883 16.6474C25.7278 16.0934 25.4667 15.921 24.9237 15.5687C23.3656 14.5562 24.2382 15.1284 22.0926 13.7101C21.4111 13.2665 21.0139 12.9333 20.642 12.9333C20.2728 12.9333 19.5979 13.2665 17.4186 14.4192C11.4914 17.5606 6.34907 20.2897 1.85866 22.6714L1.27246 26.0309L18.9315 16.6606C19.6051 16.3032 19.6912 16.249 20.0668 16.249Z" fill="#A3A3A3"/>
<path fill-rule="evenodd" clip-rule="evenodd" d="M23.2795 3.50175C25.463 4.9176 32.8497 9.65929 34.4594 10.7137C34.8678 10.9859 35.3708 11.2073 35.6215 11.2016C35.956 11.1932 36.0678 11.0816 36.925 10.6326C38.7903 9.64874 38.6631 9.64598 38.2284 9.37383C37.813 9.11532 26.6901 1.92404 24.0051 0.189638C23.6622 -0.0303957 23.3842 -0.165039 23.0455 -0.165039C22.6974 -0.165039 22.1861 -0.0303956 21.7364 0.203238C14.8678 3.80957 9 6.88861 3.93743 9.54529L3.34277 12.9325C8.47429 10.2434 14.4316 7.11651 21.4237 3.45193C22.46 2.90535 22.5272 3.01666 23.2795 3.50175Z" fill="#A3A3A3"/>
<path fill-rule="evenodd" clip-rule="evenodd" d="M21.2723 9.36931C21.491 9.36931 21.9007 9.64277 22.4172 9.96745C24.2334 11.1147 27.2385 12.9422 27.4487 13.0846C27.4487 13.0846 27.641 13.2128 28.1674 13.5464C28.5784 13.8114 28.8733 14.0452 29.2399 14.0452C29.6165 14.0452 29.625 14.0274 30.4113 13.6229C32.3726 12.6115 32.4983 12.5349 32.1235 12.297C29.7578 10.7909 27.4242 9.30637 23.029 6.53457C22.2413 6.03906 22.2191 6.03906 21.8826 6.03906C21.5212 6.03906 21.3634 6.04375 20.778 6.34699C13.737 9.98703 7.7341 13.0952 2.56192 15.7731L1.95996 19.137C7.12718 16.4632 13.1281 13.3639 20.1581 9.72811C20.76 9.41508 20.8834 9.36931 21.2723 9.36931Z" fill="#A3A3A3"/>
<path fill-rule="evenodd" clip-rule="evenodd" d="M49.3549 28.4286H44.5049L45.5817 21.8926H42.2392L39.874 36.3655L43.2193 36.3691L44.0248 31.4676H48.8775L48.0674 36.3627H51.304L53.661 21.8926H50.4303L49.3549 28.4286Z" fill="#A3A3A3"/>
<path fill-rule="evenodd" clip-rule="evenodd" d="M54.6365 25.8666L57.4671 27.5921L54.0268 29.4512L52.9717 35.6795H56.3744L58.4865 23.2712H55.0791L54.6365 25.8666Z" fill="#A3A3A3"/>
<path fill-rule="evenodd" clip-rule="evenodd" d="M66.4733 26.8535C65.8897 26.1909 64.8132 25.6525 63.508 25.6525C62.4293 25.6525 61.8601 25.984 61.8309 25.984L61.5494 27.7778C61.5548 27.7778 62.1178 27.6306 62.5764 27.6813C64.6496 27.9131 64.3983 30.2084 64.2836 30.9292C64.0615 32.3231 63.2935 33.7757 61.8615 34.2966C60.9285 34.6415 60.3844 34.4753 60.3844 34.4753L62.1474 23.2747L59.1201 23.2715L57.1084 36.0603C57.1152 36.0492 59.3889 36.377 61.0566 36.3688C62.7058 36.3618 64.2157 35.8941 65.3964 34.8469C66.4491 33.9091 67.0866 32.5096 67.3582 30.7518C67.4238 30.3108 67.4569 29.8916 67.4468 29.4995C67.4122 28.3753 67.0974 27.5613 66.4733 26.8535Z" fill="#A3A3A3"/>
<path fill-rule="evenodd" clip-rule="evenodd" d="M70.1886 26.8753C69.6227 27.3886 69.4269 28.6904 69.258 29.7262L68.1357 36.3686H71.3178L72.4959 29.6057C72.6331 28.7633 73.0763 28.3585 73.7532 28.3585H74.859L75.7186 26.0283C72.3173 26.0283 70.9373 26.1949 70.1886 26.8753Z" fill="#A3A3A3"/>
<path fill-rule="evenodd" clip-rule="evenodd" d="M89.8941 28.0421L90.1974 25.9368H88.6932L89.0696 23.2715L86.2474 24.2312L86.0007 25.9368H84.9825L84.6826 28.0421H85.6973L85.1266 31.9793C85.0397 32.5353 84.9618 33.1028 84.8936 33.6693C84.7357 34.8741 85.241 35.5446 85.463 35.7763C85.8511 36.1966 86.335 36.3691 87.1319 36.3691L87.216 36.3659C88.0597 36.3548 88.5871 36.1084 88.7387 36.004L89.0269 34.0399C88.8773 34.0873 88.6126 34.1448 88.2934 34.1448C87.8688 34.1448 87.6337 33.8882 87.622 33.4012C87.622 33.3032 87.6379 33.1796 87.6572 33.0365L88.3941 28.0421H89.8941Z" fill="#A3A3A3"/>
<path fill-rule="evenodd" clip-rule="evenodd" d="M103.422 29.7301L103.427 29.7019C103.529 29.7019 104.201 29.4353 104.922 28.7701C105.645 28.0986 105.91 27.6699 106.038 26.6852C106.162 25.6503 105.639 24.456 104.739 23.9158C103.606 23.2469 102.825 23.2716 101.374 23.2716L95.7555 23.2747L93.6475 35.6795L96.9425 35.6768L98.7307 25.1615H100.797C102.04 25.1615 102.752 25.7685 102.702 26.7872C102.657 27.6299 102.221 28.0227 101.796 28.2925C101.337 28.5921 100.859 28.7521 99.6475 28.7534L98.2289 28.7548L97.9242 30.5435H99.1774C101.434 30.6036 101.864 31.6107 101.662 32.3655C101.441 33.1906 100.687 33.7345 98.5846 33.804H97.3706L97.0522 35.6765H99.7916C100.784 35.6765 102.378 35.6559 103.266 35.2433C104.933 34.4665 105.313 33.3224 105.422 32.46C105.488 31.9506 105.436 30.8598 104.725 30.2981C104.038 29.756 103.422 29.7301 103.422 29.7301Z" fill="#A3A3A3"/>
<path fill-rule="evenodd" clip-rule="evenodd" d="M121.464 26.7178C119.819 26.7178 118.364 26.9808 117.128 27.4927L115.702 36.3687L118.67 36.3661L119.908 28.7784L120.007 28.7528C120.346 28.6635 120.721 28.6144 121.095 28.6144C121.891 28.6144 122.306 28.9375 122.328 29.5816C122.328 29.6864 122.319 29.7938 122.294 29.9096L121.241 36.3589L124.243 36.3571L125.305 29.8941C125.343 29.6519 125.357 29.4158 125.352 29.1922C125.308 27.5262 124.034 26.7178 121.464 26.7178Z" fill="#A3A3A3"/>
<path fill-rule="evenodd" clip-rule="evenodd" d="M128.71 23.2742L126.729 35.6798H129.706L130.489 30.9157L132.534 35.6798L136.025 35.6793L133.399 30.3301L137.07 25.884H133.899L130.608 30.1132L131.691 23.2715L128.71 23.2742Z" fill="#A3A3A3"/>
<path fill-rule="evenodd" clip-rule="evenodd" d="M79.3696 34.264C78.1494 34.142 77.1064 33.1006 77.2491 31.6158C77.467 29.299 78.3997 28.608 78.723 28.2885C79.0925 27.9242 79.5495 27.7402 80.0886 27.7402C80.9013 27.7402 81.2942 28.2477 81.2549 29.2448C81.2474 29.5005 81.2067 29.7778 81.1502 30.0749L81.1178 30.2086H77.902C77.902 30.2086 77.7462 30.6241 77.6441 31.0952C77.5476 31.5381 77.5435 31.7651 77.5435 31.7651L83.6759 31.7885C83.8586 31.0854 83.9675 30.4163 83.9882 29.7949C84.0351 28.6259 83.7849 27.7096 83.2527 27.0644C82.684 26.3756 81.8147 26.0283 80.6766 26.0283C79.1724 26.0283 77.8475 26.4779 76.7418 27.3709C75.6305 28.2629 74.8895 29.47 74.529 30.9611C74.4221 31.4026 74.3621 31.8298 74.3456 32.2211C74.3035 33.3563 74.733 34.4943 75.4761 35.1889C76.231 35.8934 77.165 36.3686 78.5327 36.3686C79.9031 36.3686 81.6051 35.9809 83.2458 34.7715L82.0622 33.4654C80.7903 34.2613 80.012 34.3309 79.3696 34.264Z" fill="#A3A3A3"/>
<path fill-rule="evenodd" clip-rule="evenodd" d="M111.561 26.0283C110.726 26.027 109.725 26.161 108.638 26.4206L108.329 28.2798C109.417 27.9052 110.192 27.8348 110.696 27.8348C111.77 27.8357 112.209 28.1059 112.217 28.7049C112.217 28.8007 112.052 29.7894 112.037 29.8821C111.846 31.0372 111.347 34.0626 111.347 34.0626C111.325 34.1913 111.162 34.1944 110.285 34.193C109.684 34.1913 109.232 34.0279 108.984 33.7191C108.791 33.4811 108.724 33.1591 108.782 32.7888C108.882 32.1621 109.21 31.6917 109.758 31.3833C110.28 31.0877 110.97 31.0455 111.737 31.0337L112.019 29.3805C111.897 29.3735 111.554 29.3651 111.44 29.3651C110.151 29.3651 108.94 29.666 108.003 30.2269C107.668 30.4289 107.366 30.663 107.111 30.9292C106.4 31.6719 106.026 32.6255 106.055 33.6212C106.082 34.4653 106.559 34.9652 107.163 35.2595C107.894 35.6148 108.809 35.678 109.346 35.678C109.606 35.678 109.812 35.6807 109.823 35.678H113.808L114.364 32.4506C114.364 32.4506 114.912 28.9667 114.975 28.5802C115.266 26.7561 113.983 26.0336 111.561 26.0283Z" fill="#A3A3A3"/>
<path fill-rule="evenodd" clip-rule="evenodd" d="M67.1318 3.97168C65.6794 3.97168 64.4707 4.41404 63.5477 5.28909C62.627 6.15871 62.0582 7.42118 61.8041 9.04039L61.4544 11.2634H58.417L57.1123 14.9406H57.372C57.9576 14.9406 58.4865 14.7988 58.9391 14.5092C59.3487 14.2469 59.6623 13.8964 59.8767 13.4677H61.075L60.3709 17.7587H63.4485L64.8771 9.00324C65.0097 8.16678 65.2703 7.56126 65.5578 7.18529C65.8234 6.84433 66.1521 6.67386 66.6303 6.66889C67.1181 6.66207 67.3983 6.83386 67.558 7.17708C67.7352 7.54623 67.7586 8.15492 67.6249 8.98683L66.1562 17.7588H69.3593L70.7869 9.0792C71.0427 7.4531 70.8621 6.18387 70.2465 5.30743C69.6267 4.42051 68.5782 3.97168 67.1318 3.97168Z" fill="#A3A3A3"/>
<path fill-rule="evenodd" clip-rule="evenodd" d="M107.185 3.97182C105.763 3.97182 104.581 4.41417 103.67 5.28923C102.771 6.15885 102.187 7.42132 101.933 9.04053L101.229 13.4306H104.356L105.051 9.00461C105.184 8.15093 105.397 7.53313 105.678 7.16805C105.939 6.83261 106.273 6.66896 106.698 6.66896C107.151 6.66896 107.445 6.83668 107.605 7.17715C107.778 7.5463 107.786 8.15589 107.658 8.98876L106.26 17.7587H109.382L110.769 9.07906C111.022 7.45296 110.844 6.18373 110.243 5.30729C109.636 4.42038 108.608 3.97182 107.185 3.97182Z" fill="#A3A3A3"/>
<path fill-rule="evenodd" clip-rule="evenodd" d="M128.004 5.76044C126.939 5.72038 125.991 5.9753 125.192 6.40594C125.072 6.14323 125.003 5.63249 125.166 4.63101L125.402 3.28223H122.08L121.857 4.54953C121.537 6.47377 121.943 7.7461 123.055 8.50129C122.733 9.13721 122.396 10.2689 122.287 11.2858C122.265 11.4911 122.187 12.1071 122.187 12.1071L123.282 12.1048C122.421 12.7393 121.888 13.6889 121.676 14.9385L121.222 17.7568L124.464 17.7585L124.926 15.0746C125.026 14.4733 125.256 14.0317 125.485 13.7863C125.696 13.5583 126.002 13.4463 126.426 13.4463H126.458L126.841 11.2148H126.425C126.213 11.2148 125.605 11.2203 125.605 11.2203C125.605 11.2203 125.708 9.84917 126.23 9.20366C126.512 8.85995 127.01 8.46261 128.17 8.51314C129.806 8.58504 129.798 10.3882 129.655 11.2266L128.547 17.7481H131.796L132.792 11.3218C132.792 11.3218 134.253 5.98985 128.004 5.76044Z" fill="#A3A3A3"/>
<path fill-rule="evenodd" clip-rule="evenodd" d="M81.0299 14.8165C81.0299 14.8165 77.3384 15.0818 76.7869 15.0777C76.3375 15.075 75.8363 15.0073 75.6109 14.8637C75.3441 14.6934 75.229 14.3935 75.2628 13.9556C75.3434 12.8739 76.354 11.656 77.9574 10.33C78.9846 9.49179 79.7746 8.54276 80.3019 7.51425C80.8527 6.44397 81.1188 5.47544 81.2181 4.16802L81.2339 3.97266H78.1077L78.0919 4.20435C78.016 5.24375 77.8278 6.08737 77.539 6.71427C77.2509 7.33302 76.8297 7.88954 76.2775 8.35016C74.8788 9.55176 73.8696 10.6057 73.2857 11.4761C72.6943 12.3602 72.3606 13.2851 72.2875 14.2273C72.1965 15.4661 72.5178 16.376 73.2395 16.9357C73.8179 17.3828 74.6754 17.6085 75.7825 17.6085C76.0307 17.6085 76.2954 17.5999 76.5712 17.5772L78.3345 17.435C78.4613 17.7358 78.7006 17.9847 79.0411 18.1737C79.3678 18.3567 79.7318 18.449 80.122 18.449C80.1895 18.449 80.2612 18.4462 80.3315 18.4395L81.0395 18.3836L80.6714 16.0068L81.0299 14.8165Z" fill="#A3A3A3"/>
<path fill-rule="evenodd" clip-rule="evenodd" d="M119.336 9.86595C119.336 9.86595 121.084 6.64607 119.162 4.95675C118.777 4.61373 116.915 3.50609 114.356 4.19082C113.235 4.49172 112.701 4.86348 112.701 4.86348L112.261 7.42014C113.35 6.55687 116.346 6.05102 116.875 7.37664C117.436 8.7825 114.932 11.2983 114.927 11.2956H117.44L114.74 17.7586H117.993L121.222 9.8656L119.336 9.86595Z" fill="#A3A3A3"/>
<path fill-rule="evenodd" clip-rule="evenodd" d="M89.1784 8.47688L89.7299 5.25094L88.7744 5.2468C88.1395 5.2468 87.6997 5.12141 87.4736 4.87655C87.2461 4.63618 87.1744 4.21664 87.2689 3.63566L87.3302 3.28223H84.1427L84.0648 3.74375C83.7753 5.50855 84.395 6.70429 86.1218 7.2173L85.9012 8.48143H82.0036L80.5498 12.698H81.284C81.8851 12.698 82.431 12.5465 82.9101 12.2515C83.341 11.9925 83.6857 11.6422 83.9118 11.2149H85.4263L84.3068 17.7585H87.5908L88.7096 11.2149H90.1014C90.1828 11.6422 90.4013 11.9925 90.7425 12.2515C91.123 12.5465 91.6249 12.698 92.2267 12.698H92.9581L92.8898 8.48143L89.1784 8.47688Z" fill="#A3A3A3"/>
<path fill-rule="evenodd" clip-rule="evenodd" d="M56.343 13.7192C56.4971 12.7439 56.4278 11.8652 56.1346 11.097C55.8438 10.3223 55.3395 9.70489 54.6305 9.26309C53.979 8.85409 53.1721 8.61103 52.2324 8.53899L52.7698 5.12065H51.3046C50.5479 5.12065 50.3686 5.0067 50.3265 4.95603C50.2213 4.82933 50.1978 4.558 50.2612 4.14674L50.3957 3.28767L47.1981 3.28223L47.0649 4.11985C46.8569 5.33407 46.6616 6.47763 47.1477 7.06806C47.3625 7.32567 47.6878 7.45747 48.1191 7.45747C48.1191 7.45747 49.1688 7.45017 49.1915 7.45017L49.0257 8.52672C47.5387 8.65253 46.2792 9.16278 45.2748 10.0496C44.2151 10.9875 43.5201 12.2378 43.2863 13.7461L42.6357 17.7585H45.9517L46.61 13.6827C46.7187 12.9846 46.9298 12.3714 47.3439 11.9423C47.6914 11.5752 48.0553 11.3696 48.5967 11.2734L47.5786 17.7585H50.7406L51.7848 11.2665C52.2868 11.3546 52.6837 11.5766 52.9356 11.9423C53.2251 12.3659 53.3153 12.95 53.2002 13.6827L52.5614 17.7585H55.6938L56.343 13.7192Z" fill="#A3A3A3"/>
</g>
<defs>
<clipPath id="clip0_459_10873">
<rect width="136.533" height="40" fill="white" transform="translate(0.456055)"/>
</clipPath>
</defs>
</svg>
