<svg width="44" height="50" viewBox="0 0 44 50" fill="none" xmlns="http://www.w3.org/2000/svg">
<path d="M28.0796 49.901C22.4756 49.0849 18.3682 44.9703 17.5361 39.339C17.3608 38.1525 17.3854 36.1411 17.5887 35.0299C17.6447 34.7237 17.9435 33.038 18.2526 31.2839C18.5617 29.5299 19.1104 26.4185 19.472 24.3697C19.8336 22.3209 20.1978 20.5123 20.2815 20.3506C20.3651 20.1888 20.6009 19.9289 20.8054 19.7728L21.1773 19.4892H32.153H43.1287L43.4241 19.8198C43.9754 20.4369 43.7501 21.3808 42.9175 21.9419C42.5767 22.1716 42.5669 22.1721 38.6171 22.1724C34.3171 22.1727 33.4445 22.2375 31.6956 22.6865C27.5447 23.7521 23.5962 27.0059 21.6503 30.9642C19.2505 35.846 19.8511 41.0592 23.1921 44.3479C26.3954 47.5011 31.4297 48.1679 35.7321 46.009C39.6592 44.0384 42.3024 39.5467 41.6549 35.9439C41.1389 33.0727 38.6951 31.0906 35.6616 31.0832C32.6928 31.076 29.7383 33.4679 29.0841 36.4086C28.5452 38.8307 29.8495 40.7476 32.2128 41.0071C32.8109 41.0727 32.9705 41.1311 33.1623 41.354C33.4295 41.6647 33.4513 41.9126 33.2461 42.3094C32.9755 42.8326 32.6491 42.9598 31.731 42.8998C29.8446 42.7764 28.3574 41.7951 27.5311 40.1287C26.4143 37.8763 27.2095 34.5434 29.4331 32.1571C30.5299 30.9801 32.5093 29.7963 34.0509 29.3956C35.01 29.1462 37.1174 29.1501 38.0497 29.403C41.1402 30.2411 43.1667 32.5073 43.6243 35.6367C43.9411 37.8032 43.1699 40.8995 41.7436 43.188C39.6235 46.5895 35.9527 49.1207 32.0722 49.8568C31.174 50.0272 29.1035 50.0501 28.0796 49.901ZM12.6699 35.9954C12.4926 35.9183 12.2705 35.7063 12.1764 35.5244C12.0267 35.235 12.0196 35.0916 12.1194 34.3778C12.8667 29.0295 10.1477 24.3756 5.34627 22.7847C4.39154 22.4684 3.50823 22.301 2.36197 22.2194C1.80513 22.1797 1.23403 22.0884 1.09285 22.0165C0.71792 21.8254 0.553894 21.4509 0.613513 20.9219C0.679018 20.3408 1.01819 19.8694 1.54201 19.6315C1.93419 19.4534 2.35487 19.4429 9.19584 19.4412C16.1944 19.4394 16.4454 19.4459 16.7582 19.6366C17.4245 20.0429 17.4436 19.8282 16.038 27.7655C15.3404 31.705 14.7044 35.0536 14.6247 35.2068C14.4262 35.5884 14.0714 35.8908 13.6607 36.0283C13.2249 36.1743 13.0694 36.1691 12.6699 35.9954ZM21.5781 16.4826C21.3531 16.3739 21.0412 15.8391 21.0412 15.562C21.0412 15.1165 23.6043 1.04171 23.7295 0.79953C23.968 0.338399 24.5535 0 25.1128 0C25.5018 0 25.6572 0.0567097 25.9246 0.296149C26.2519 0.589365 26.2547 0.599646 26.2067 1.33389C26.1801 1.74176 26.1594 2.80442 26.1608 3.69535C26.1629 5.05496 26.2003 5.4535 26.3934 6.1758C26.9121 8.11517 27.6765 9.47904 28.9827 10.7958C30.404 12.2286 31.8654 13.0614 33.8533 13.5714C34.6575 13.7777 35.0845 13.8105 37.645 13.8624C40.813 13.9266 40.8489 13.9337 41.1449 14.5574C41.3357 14.9595 41.2691 15.3871 40.9352 15.9046C40.4574 16.6449 41.0421 16.6046 30.8971 16.5969C24.7011 16.5923 21.7296 16.5558 21.5781 16.4826Z" fill="#A3A3A3"/>
</svg>
