<svg width="102" height="40" viewBox="0 0 102 40" fill="none" xmlns="http://www.w3.org/2000/svg">
<path d="M101.201 5.37676C100.76 7.14063 99.9093 8.80748 100.443 10.6948C100.36 10.7493 100.269 10.7909 100.174 10.8183C98.0573 10.9947 97.8368 10.7345 98.3483 8.65755C98.6085 7.59041 98.9348 6.5365 99.1509 5.46055C99.3978 4.21261 99.0979 3.36596 98.4365 3.13666C97.775 2.90735 96.7917 3.40124 96.1964 4.36254C96.0518 4.62848 95.9223 4.90231 95.8083 5.18274L96.5536 5.42086C96.0641 7.18472 95.5746 8.9089 95.0322 10.8359C95.2174 10.7257 95.1645 10.783 95.1116 10.7874C93.0655 10.9329 92.7524 10.5537 93.4007 8.63109C93.7005 7.74916 94.0798 6.86723 94.4546 5.92797L93.3081 5.84419C93.7931 5.0725 94.19 4.44192 94.6089 3.75842L93.1846 3.67023V0.191006C93.6696 0.0501648 94.1757 -0.00358268 94.6795 0.0322585C94.8765 0.114651 95.0513 0.242181 95.19 0.404566C95.3286 0.56695 95.4271 0.759644 95.4776 0.967106C95.5534 1.7394 95.5666 2.51656 95.5173 3.29099C96.1876 3.12784 96.8402 2.92058 97.5457 2.80593C99.5874 2.45316 100.496 2.96468 101.206 4.80792L101.201 5.37676Z" fill="#A3A3A3"/>
<path d="M10.5432 31.0641C11.1606 30.8833 11.7911 30.729 12.3997 30.5217C19.2655 28.1758 26.0211 28.4051 32.6003 31.5183C35.9357 33.0607 38.8046 35.4565 40.9169 38.4635C41.1379 38.7541 41.2724 39.101 41.305 39.4645C41.0074 39.2749 40.7217 39.0673 40.4495 38.8428C34.9066 33.6305 28.2039 32.3517 20.9147 33.0749C15.5261 33.5953 10.3624 35.1122 5.20753 36.6688C4.55143 36.8834 3.87894 37.0441 3.19672 37.1495C1.93115 37.317 1.43286 36.8849 1.57397 35.6413C1.68916 34.7408 1.97342 33.87 2.4118 33.0749C3.91109 30.4027 6.11592 28.2949 8.40453 26.3237C11.8088 23.3737 15.3409 20.5824 18.7937 17.6985C19.2795 17.2052 19.7221 16.6712 20.1166 16.1022C19.5345 15.6612 19.0142 15.0879 18.3527 14.841C16.0861 13.9811 13.7446 13.2315 11.4296 12.4333C10.834 12.1863 10.2525 11.9066 9.68774 11.5955C9.68774 11.4808 9.72301 11.3662 9.74506 11.2471C10.2742 11.2471 10.8078 11.2118 11.3325 11.2471C14.0621 11.4544 16.7873 11.7983 19.5213 11.8645C22.7888 11.9394 26.0652 11.7719 29.3372 11.7234C29.995 11.6894 30.6546 11.713 31.3083 11.7939C32.3754 11.9615 32.5768 12.4804 31.9124 13.3505C31.4467 13.9865 30.8996 14.5588 30.2852 15.0527C26.3166 18.0777 22.3479 21.0542 18.4012 24.0704C16.0788 25.8343 13.7696 27.6334 11.4736 29.4678C11.0533 29.8541 10.6641 30.2728 10.3095 30.7202C10.3889 30.8304 10.4638 30.9451 10.5432 31.0597" fill="#A3A3A3"/>
<path d="M58.5564 28.7795H54.0188C54.3539 27.0156 54.6714 25.2826 54.9933 23.5673C55.1521 22.6853 55.3593 21.8431 55.4652 20.97C55.5887 19.9337 55.0242 19.4442 54.0056 19.5721C53.4726 19.6324 52.9734 19.8633 52.5824 20.2304C52.1915 20.5976 51.9296 21.0813 51.836 21.6094C51.3951 23.9818 50.9276 26.3542 50.469 28.7618H45.4023C45.6272 27.5007 45.8433 26.3057 46.0594 25.1151C46.6106 22.2091 47.1927 19.3119 47.7174 16.4016C47.8365 15.7357 48.1143 15.5196 48.7757 15.5196C50.1251 15.5637 51.4744 15.5196 52.8944 15.5196C52.8591 16.0312 52.837 16.4501 52.8062 16.8955C57.6568 14.5848 58.7019 14.6509 60.8229 17.4643C61.158 17.1909 61.4888 16.9175 61.8327 16.6573C62.5245 16.1115 63.3252 15.72 64.1809 15.5093C65.0366 15.2986 65.9274 15.2736 66.7936 15.4359C68.2973 15.6916 69.2806 16.6838 69.2233 18.2095C69.1331 19.5872 68.9504 20.9573 68.6765 22.3105C68.337 24.264 67.9533 26.2086 67.5476 28.1445C67.4947 28.4047 67.1905 28.8015 66.9964 28.8059C65.4001 28.8633 63.7994 28.8368 62.1061 28.8368C62.5471 26.4027 63.0145 24.092 63.429 21.7813C63.7112 20.2468 63.5481 19.7882 62.7058 19.6118C62.1097 19.5311 61.5045 19.6688 61.002 19.9995C60.4995 20.3302 60.1336 20.8315 59.9718 21.4109C59.5309 23.726 59.0899 26.0455 58.649 28.3606C58.649 28.484 58.5872 28.6031 58.5343 28.8015" fill="#A3A3A3"/>
<path d="M93.0331 15.5627C92.9669 16.1007 92.9228 16.4976 92.8964 16.7092C94.2193 16.2683 95.5422 15.598 96.9136 15.3863C99.8107 14.9233 101.433 16.5328 101.006 19.4344C100.565 22.5211 99.8813 25.6079 99.2948 28.7608H94.1355C94.3956 27.3497 94.647 25.9739 94.8984 24.5937C95.1232 23.3898 95.401 22.1904 95.5554 20.9778C95.6921 19.8842 95.1144 19.4035 94.0252 19.5887C93.494 19.6661 93.0018 19.9124 92.6214 20.2912C92.241 20.67 91.9926 21.1612 91.913 21.6921C91.472 24.0381 91.0311 26.3796 90.5548 28.7476H85.3867C86.1937 24.5364 86.9874 20.3692 87.812 16.2021C87.8649 15.9552 88.2045 15.5892 88.4206 15.5803C89.9287 15.5274 91.4368 15.5495 93.0375 15.5495" fill="#A3A3A3"/>
<path d="M36.6678 22.9316C36.5267 24.2545 37.144 25.1364 38.4316 25.2246C39.6142 25.2239 40.7946 25.1206 41.9594 24.916C42.3508 24.835 42.7355 24.7244 43.1103 24.5852C42.7178 25.6788 42.3827 26.6446 42.0123 27.597C41.9239 27.7928 41.7671 27.9496 41.5713 28.038C39.0578 29.0743 36.5178 29.3918 34.022 28.038C33.3787 27.6919 32.8279 27.1965 32.4159 26.5934C32.0038 25.9903 31.7425 25.2971 31.654 24.572C30.9132 19.7699 33.8147 15.9026 38.608 15.3117C39.3749 15.1923 40.1583 15.2338 40.9083 15.4334C41.6584 15.6331 42.3587 15.9866 42.9648 16.4715C44.4905 17.715 45.077 20.8503 44.098 22.57C44 22.675 43.8811 22.7583 43.749 22.8145C43.6168 22.8707 43.4744 22.8986 43.3308 22.8963C41.4434 22.9272 39.5517 22.8963 37.6643 22.8963L36.6678 22.9316ZM36.9456 20.5239C38.0524 20.5239 39.0843 20.5504 40.1117 20.5019C40.2341 20.4709 40.347 20.4105 40.4408 20.326C40.5345 20.2415 40.6062 20.1353 40.6497 20.0168C40.6979 19.8192 40.7036 19.6136 40.6662 19.4136C40.6288 19.2136 40.5493 19.0239 40.4329 18.8571C40.3165 18.6902 40.1659 18.55 39.9912 18.4459C39.8164 18.3417 39.6215 18.276 39.4194 18.253C37.973 18.0369 36.9808 18.9232 36.9456 20.5372" fill="#A3A3A3"/>
<path d="M76.3101 22.93C76.1117 24.2529 76.782 25.2054 78.1798 25.2407C79.6557 25.2036 81.1281 25.0799 82.5895 24.8702C82.2808 25.7169 81.928 26.7311 81.5268 27.7277C81.4606 27.8953 81.2093 28.0231 81.0196 28.1069C79.2541 28.9042 77.2822 29.1248 75.3841 28.7375C72.5487 28.1202 71.0891 26.0917 71.142 23.005C71.1325 21.8811 71.3706 20.7689 71.8394 19.7475C72.3081 18.726 72.9961 17.8203 73.8543 17.0946C74.7125 16.369 75.72 15.8412 76.8052 15.5488C77.8904 15.2564 79.0267 15.2065 80.1333 15.4027C82.8056 15.8437 84.393 17.9515 84.102 20.6943C83.8727 22.93 83.8727 22.93 81.6414 22.93H76.3101ZM76.5086 20.5311C77.4478 20.5311 78.343 20.5311 79.2426 20.5311C80.2259 20.5311 80.5346 20.1872 80.1642 19.2832C80.0507 19.0434 79.8886 18.8298 79.6882 18.6559C79.4878 18.4821 79.2535 18.3518 79 18.2734C77.6154 17.9691 76.7114 18.7981 76.5086 20.5311Z" fill="#A3A3A3"/>
<path d="M26.8644 9.66644C26.613 10.0413 26.3881 10.372 26.1368 10.7512C19.9103 7.1397 13.7103 6.93686 7.98661 11.4656C2.26288 15.9943 1.0855 22.1325 3.19772 29.0204C3.0037 29.1174 2.81849 29.2277 2.62006 29.3071C2.42162 29.3864 2.21437 29.4482 2.01594 29.5099C-0.462291 24.3726 0.362314 15.9546 6.55788 10.6498C12.7534 5.34497 21.5507 5.71097 26.8644 9.66644Z" fill="#A3A3A3"/>
<path d="M55.3936 6.72998C54.6749 6.80053 53.9561 6.88432 53.2373 6.93282C52.0952 7.01661 51.7336 6.57123 52.0599 5.46C52.2363 4.86028 52.5009 4.28703 52.6641 3.69614C52.6988 3.32948 52.681 2.95975 52.6111 2.59813C52.3113 2.8142 51.9012 2.96413 51.7292 3.25958C51.1075 4.34876 50.543 5.46441 49.9962 6.60651C49.85 6.97321 49.585 7.28027 49.2437 7.47854C48.9023 7.6768 48.5043 7.75482 48.1133 7.7001C47.2997 7.69817 46.4868 7.74677 45.6792 7.84562C44.052 7.96468 43.342 7.01661 44.052 5.54819C44.8854 3.81961 46.1113 2.56726 48.2103 2.46143C49.9345 2.37765 51.6543 2.13071 53.3784 2.06015C54.5566 2.03409 55.7351 2.08713 56.9062 2.2189C57.0898 2.24124 57.2667 2.30184 57.4254 2.39678C57.5842 2.49172 57.7212 2.6189 57.8278 2.77011C58.4319 3.84606 57.9865 4.90879 57.5808 5.92742C57.281 6.67706 56.6019 6.84022 55.8567 6.80935H55.3936C55.3915 6.79326 55.3915 6.77694 55.3936 6.76085M50.0624 2.79216C48.0427 2.64664 45.9482 4.89556 46.1334 6.70352C46.1995 7.30323 46.5743 7.46639 47.0506 7.26796C47.3692 7.1318 47.6407 6.90481 47.8311 6.61533C48.5807 5.39826 49.2819 4.15033 50.0668 2.79216M56.3726 3.52416L55.4907 2.5849C55.2569 2.84948 54.9218 3.07437 54.8116 3.37864C54.5586 4.09544 54.3697 4.83328 54.2471 5.58347C54.2577 5.90241 54.3327 6.21591 54.4676 6.50509C54.8027 6.34193 55.301 6.26256 55.4377 5.99357C55.7941 5.19613 56.1004 4.37729 56.3549 3.5418" fill="#A3A3A3"/>
<path d="M83.1777 34.397V39.8694H81.6211V31.7512C82.6309 31.4646 83.3629 31.7512 84.0376 32.6022C85.2855 34.2118 86.6613 35.7199 88.1694 37.4925V31.6939H89.7922V39.8385C89.3641 39.9959 88.8952 40.003 88.4625 39.8588C88.0298 39.7145 87.659 39.4275 87.411 39.0448C86.141 37.4132 84.7652 35.8786 83.4026 34.3044L83.1777 34.397Z" fill="#A3A3A3"/>
<path d="M66.8593 35.4951C68.3101 36.1963 68.7025 36.8842 68.4776 38.1409C68.3013 39.164 67.6619 39.7593 66.3081 39.8519C64.8705 39.9489 63.4286 39.8519 61.8984 39.8519V31.7513C63.4462 31.7513 65.0337 31.6808 66.6168 31.7778C67.0014 31.8012 67.365 31.9611 67.6422 32.2286C67.9195 32.4962 68.0922 32.8539 68.1293 33.2374C68.2924 34.2604 67.9264 35.0013 66.8549 35.4907M63.5168 38.6348C64.3678 38.5951 65.1175 38.5731 65.8583 38.5202C66.5065 38.4717 66.7755 38.0792 66.7976 37.4442C66.8207 37.3034 66.8139 37.1594 66.7776 37.0214C66.7412 36.8834 66.6762 36.7547 66.5867 36.6436C66.4972 36.5325 66.3853 36.4415 66.2583 36.3766C66.1313 36.3116 65.992 36.2742 65.8495 36.2668C65.091 36.1919 64.3193 36.2668 63.5168 36.2668V38.6348ZM63.5168 34.8778C64.2514 34.9361 64.9899 34.9213 65.7216 34.8337C65.9159 34.7466 66.088 34.617 66.2254 34.4544C66.3628 34.2919 66.4619 34.1005 66.5153 33.8944C66.6388 33.3785 66.286 32.986 65.7084 32.964C64.994 32.9375 64.2752 32.964 63.5036 32.964L63.5168 34.8778Z" fill="#A3A3A3"/>
<path d="M36.4902 2.31215C37.1252 2.48854 38.038 2.47531 38.3291 2.88982C38.6201 3.30433 38.3996 4.21272 38.3996 4.99323L40.3399 4.78597C40.4192 3.84672 40.4986 2.95596 40.578 2.02994C40.578 2.02994 40.578 2.00348 40.6177 2.00348C42.4785 1.79182 42.602 1.90206 42.3815 3.76734C42.1963 5.29749 41.9406 6.82323 41.7818 8.35339C41.6936 9.15153 41.698 9.9585 41.6583 10.7875C39.674 11.0918 39.5549 10.9948 39.771 8.96633C39.8989 7.74926 40.0797 6.54102 40.2561 5.19166L38.2364 5.36805C38.0512 7.18483 37.8749 8.95751 37.6896 10.8052C37.7602 10.7522 37.7382 10.7787 37.6896 10.7831C35.3702 11.1138 35.6965 10.6905 35.9258 9.17358C36.1639 7.52437 36.3138 5.86193 36.4726 4.2039C36.4991 3.67801 36.4991 3.15113 36.4726 2.62524V2.31215" fill="#A3A3A3"/>
<path d="M96.4052 35.4743L101.079 39.8574C99.567 40.0382 98.3807 40.0735 97.4371 38.852C96.6169 37.7937 95.6159 36.8721 94.6943 35.8932L94.3988 36.0563V39.8839H92.7188V31.7216H94.3636V35.3023L94.6678 35.4743C95.4968 34.5923 96.3655 33.7368 97.1416 32.8285C97.9177 31.9201 98.9055 31.3512 100.18 31.7657L96.4052 35.4743Z" fill="#A3A3A3"/>
<path d="M79.6506 39.8288C78.019 40.089 78.0454 40.0713 77.2517 38.7881C77.1466 38.6503 77.0139 38.5359 76.862 38.4524C76.7101 38.3689 76.5425 38.318 76.3698 38.3031C75.1756 38.2391 73.9789 38.2391 72.7847 38.3031C72.5886 38.3255 72.4003 38.3934 72.235 38.5014C72.0696 38.6093 71.9317 38.7543 71.8322 38.9248C71.4707 39.9832 70.7607 40.0625 69.7773 39.8553C69.8964 39.5554 69.9802 39.2952 70.0992 39.0483C71.2325 36.7685 72.379 34.4975 73.4947 32.2089C73.576 31.9754 73.7341 31.7763 73.9431 31.6442C74.1521 31.512 74.3998 31.4546 74.6456 31.4813C74.8908 31.4543 75.1381 31.5093 75.3488 31.6378C75.5594 31.7662 75.7215 31.9609 75.8098 32.1913C76.9827 34.5549 78.2042 36.8964 79.3992 39.2467C79.4899 39.4404 79.5694 39.6392 79.6373 39.842M74.5662 33.2893L72.7362 37.011H76.3742C75.7657 35.7631 75.2189 34.6386 74.5662 33.2893Z" fill="#A3A3A3"/>
<path d="M28.0898 34.1816C28.4646 34.53 28.7821 34.8166 29.0952 35.1033C24.1828 40.483 15.1033 41.5987 8.89453 37.6256L9.57803 36.4129C12.4774 38.1225 15.8575 38.8336 19.1999 38.437C22.5551 38.0505 25.6845 36.5526 28.0898 34.1816Z" fill="#A3A3A3"/>
<path d="M77.7456 7.93887C75.9023 8.26519 75.7744 8.16818 75.8141 6.17501C75.7959 5.42092 75.858 4.66704 75.9993 3.92609C76.1495 3.37233 76.4121 2.85545 76.7708 2.40769C77.1295 1.95993 77.5767 1.5909 78.0844 1.32361C78.5921 1.05632 79.1494 0.89652 79.7215 0.854167C80.2937 0.811814 80.8685 0.887822 81.41 1.07745C82.2522 1.38612 82.5036 2.07844 82.4859 2.88541C82.4463 4.67573 82.3669 6.47046 82.3184 8.26519C82.2963 9.03688 82.3184 9.81298 82.3184 10.6773C82.4463 10.6067 82.4198 10.6332 82.3933 10.6332C80.3914 10.9066 80.2855 10.8052 80.3517 8.79876C80.4134 7.03489 80.4884 5.27103 80.5192 3.50717C80.5457 2.09608 80.0783 1.38171 79.2272 1.34203C78.3761 1.30234 77.7941 1.99025 77.7191 3.37488C77.6397 4.85652 77.7191 6.34699 77.7411 7.93446" fill="#A3A3A3"/>
<path d="M89.4766 4.74634H87.1968C87.5903 4.03095 87.945 3.29494 88.2595 2.54151C88.5417 1.76541 88.1757 1.28476 87.4393 1.41264C87.2984 1.46518 87.1709 1.54814 87.0657 1.65561C86.9605 1.76307 86.8803 1.89241 86.8308 2.0344C86.3898 3.39698 85.7857 3.84677 84.3438 3.79826C84.4364 3.11917 84.529 2.43568 84.6436 1.59343C86.2359 1.05266 87.9376 0.916282 89.5957 1.19656C90.4511 1.37295 90.7157 1.92416 90.3982 2.75317C90.1777 3.33084 89.9087 3.88645 89.6001 4.60082C90.1469 4.60082 90.5173 4.60082 90.8877 4.60082C91.8049 4.63169 91.9725 4.88304 91.5712 5.69441C91.0685 6.71304 90.5084 7.6964 90.0278 8.72385C89.7412 9.33238 89.5516 9.99383 89.2561 10.8096C88.8681 10.8096 88.3124 10.8096 87.7524 10.8096C87.0116 10.8096 86.8705 10.4568 87.1571 9.84831C87.7877 8.52541 88.4315 7.18047 89.0621 5.83993C89.2032 5.53567 89.2958 5.20935 89.4766 4.72429" fill="#A3A3A3"/>
<path d="M62.1419 1.48334C61.3217 3.61761 60.9204 3.97039 59.3594 3.7499C59.5076 3.43836 59.6215 3.11158 59.6989 2.77537C59.7101 2.39591 59.6835 2.01629 59.6195 1.64209C61.2908 1.16584 63.0018 0.843938 64.7612 1.20112C65.6167 1.38633 65.8372 1.93753 65.502 2.78419C65.308 3.28248 65.0919 3.77195 64.8935 4.26583C64.8893 4.37673 64.8982 4.48774 64.92 4.59656H66.1723C66.8911 4.59656 67.0542 4.95374 66.7456 5.5755C66.1723 6.69996 65.5682 7.80679 65.0302 8.94448C64.7951 9.53744 64.5963 10.1442 64.4349 10.7613C64.4966 10.7613 64.5451 10.6775 64.4349 10.7613C63.6985 10.726 62.9621 10.6819 62.2301 10.6378C62.4139 9.93578 62.6347 9.24397 62.8915 8.56525C63.4207 7.33495 64.0204 6.13553 64.6554 4.78617H62.3138C62.4726 4.42899 62.5652 4.18646 62.6843 3.95716C62.9005 3.61018 63.0992 3.25255 63.2796 2.88561C63.7205 1.78319 63.3369 1.31577 62.1242 1.47893" fill="#A3A3A3"/>
<path d="M32.1517 15.7041C33.135 16.7448 32.1517 17.1152 31.6269 17.7766L30.9258 16.3567L32.1517 15.7041Z" fill="#A3A3A3"/>
<path d="M31.871 28.0615C32.2811 28.7053 33.4894 28.6701 32.7133 29.8254L31.4609 29.2918C31.58 28.9346 31.6858 28.6215 31.871 28.0792" fill="#A3A3A3"/>
</svg>
