<svg width="210" height="46" viewBox="0 0 210 46" fill="none" xmlns="http://www.w3.org/2000/svg">
<g clip-path="url(#clip0_520_16729)">
<path d="M72.0129 21.1377C71.0229 22.5618 69.7454 23.7626 68.2629 24.6627C66.8436 25.3898 65.263 25.7446 63.6691 25.6939H63.3066C62.6445 25.7615 61.9824 25.5662 61.4629 25.1502C61.2532 24.8889 61.0973 24.5887 61.004 24.2669C60.9107 23.9452 60.8818 23.6081 60.9191 23.2752V18.3127H62.6629C63.4856 18.2402 64.3035 18.4964 64.9379 19.0252C65.4811 19.714 65.786 20.5607 65.8066 21.4377H66.6379V14.1627H65.8066C65.6879 15.4127 65.4129 16.1877 64.9941 16.5939C64.5754 17.0002 63.7879 17.2189 62.6379 17.2189H60.8941V13.2127C60.8388 12.6058 61.0252 12.0016 61.4129 11.5314C61.8827 11.1432 62.4872 10.9566 63.0941 11.0127H64.1504C65.5346 11.0103 66.8985 11.3448 68.1246 11.9872C69.3507 12.6296 70.402 13.5608 71.1879 14.7002L72.0066 14.3689L71.1629 12.1752L70.3254 9.98145H56.2129V10.7127H56.5441C56.8224 10.6983 57.1005 10.742 57.3609 10.8409C57.6213 10.9399 57.8583 11.0921 58.0566 11.2877C58.3749 11.8582 58.5102 12.5128 58.4441 13.1627V23.5439C58.5102 24.1939 58.3749 24.8484 58.0566 25.4189C57.8583 25.6146 57.6213 25.7667 57.3609 25.8657C57.1005 25.9647 56.8224 26.0084 56.5441 25.9939H56.2129V26.7252H70.5879L71.7129 24.1064L72.8316 21.5002L72.0129 21.1377Z" fill="#424143"/>
<path d="M90.4258 25.9562C89.8957 25.9148 89.3954 25.6944 89.007 25.3312C88.5546 24.8001 88.2087 24.1868 87.9883 23.5249L82.7383 9.9624H80.457L75.2133 23.5249C74.9911 24.1936 74.6289 24.8073 74.1508 25.3249C73.7064 25.7009 73.1509 25.9204 72.5695 25.9499L72.2695 25.9874V26.7187H78.832V25.9937L78.3758 25.9312C77.3799 25.8145 76.7862 25.5332 76.5945 25.0874C76.407 24.6437 76.5258 23.8374 76.957 22.6874L77.7695 20.4937H84.1945L85.2945 23.5437C85.6195 24.4249 85.6758 25.0249 85.4758 25.3562C85.2758 25.6874 84.732 25.8812 83.832 25.9812L83.4258 26.0187V26.7499H90.6945V25.9937L90.4258 25.9562ZM78.1758 19.4124L81.0195 11.7687L83.8133 19.4124H78.1758Z" fill="#424143"/>
<path d="M102.256 18.7749V19.5061L102.631 19.5561C103.232 19.5871 103.799 19.8386 104.225 20.2624C104.478 20.5805 104.634 20.9645 104.675 21.3686C104.717 21.7567 104.698 22.1489 104.619 22.5311C104.552 22.91 104.423 23.2752 104.238 23.6124C104.104 23.8441 103.954 24.0656 103.788 24.2749C103.282 24.8368 102.655 25.2766 101.955 25.5614C101.254 25.8461 100.498 25.9682 99.744 25.9186C98.9321 25.9295 98.1296 25.745 97.4041 25.3806C96.6785 25.0162 96.0513 24.4826 95.5752 23.8249C94.4365 22.238 93.8662 20.3135 93.9565 18.3624C93.8689 16.426 94.3913 14.511 95.4502 12.8874C95.8684 12.2454 96.4413 11.7189 97.1163 11.3563C97.7913 10.9937 98.5466 10.8066 99.3127 10.8124C100.533 10.8263 101.715 11.2365 102.681 11.9811C103.933 12.9522 104.992 14.1475 105.806 15.5061L106.738 15.2436L105.231 10.0186H104.438L103.969 11.1936H103.919C102.552 10.1263 100.865 9.55157 99.1315 9.5624C98.0401 9.53835 96.9563 9.74913 95.9534 10.1805C94.9506 10.6118 94.0522 11.2536 93.319 12.0624C91.7599 13.7644 90.9219 16.005 90.9815 18.3124C90.9558 19.4688 91.164 20.6186 91.5936 21.6926C92.0232 22.7666 92.6653 23.7427 93.4815 24.5624C94.2777 25.3803 95.2346 26.0247 96.2919 26.4549C97.3492 26.8851 98.4841 27.092 99.6252 27.0624C101.631 27.0929 103.568 26.329 105.013 24.9374L105.819 26.6436H106.981V21.9561C106.922 21.3094 107.048 20.6593 107.344 20.0811C107.519 19.891 107.735 19.7424 107.975 19.6462C108.215 19.5499 108.473 19.5085 108.731 19.5249H109.044V18.7749H102.256Z" fill="#424143"/>
<path d="M124.374 21.2002C123.528 22.5455 122.423 23.7096 121.124 24.6252C120.048 25.3846 118.766 25.7987 117.449 25.8127H117.205C116.594 25.8757 115.982 25.6986 115.499 25.3189C115.123 24.8342 114.948 24.223 115.012 23.6127V13.1627C114.944 12.5126 115.079 11.8575 115.399 11.2877C115.598 11.0948 115.834 10.9452 116.093 10.8484C116.353 10.7516 116.629 10.7096 116.905 10.7252H117.243V9.98145H110.324V10.7127H110.662C110.939 10.6984 111.216 10.7421 111.476 10.8411C111.735 10.9402 111.971 11.0923 112.168 11.2877C112.492 11.8561 112.63 12.5119 112.562 13.1627V23.5439C112.63 24.1948 112.492 24.8506 112.168 25.4189C111.971 25.6144 111.735 25.7665 111.476 25.8655C111.216 25.9645 110.939 26.0083 110.662 25.9939H110.324V26.7252H123.03L124.03 24.1189L124.999 21.5127L124.374 21.2002Z" fill="#424143"/>
<path d="M140.894 21.1377C139.893 22.5633 138.605 23.764 137.113 24.6627C135.688 25.3929 134.101 25.7478 132.5 25.6939H132.144C131.811 25.7313 131.474 25.7024 131.152 25.6091C130.831 25.5158 130.53 25.3598 130.269 25.1502C130.059 24.8889 129.904 24.5887 129.81 24.2669C129.717 23.9452 129.688 23.6081 129.725 23.2752V18.3127H131.469C132.294 18.2386 133.114 18.4948 133.75 19.0252C134.314 19.7074 134.64 20.5539 134.682 21.4377H135.513V14.1627H134.682C134.563 15.4127 134.288 16.1877 133.869 16.5939C133.45 17.0002 132.663 17.2189 131.513 17.2189H129.769V13.2127C129.714 12.6058 129.9 12.0016 130.288 11.5314C130.758 11.1438 131.362 10.9573 131.969 11.0127H133.025C134.415 11.0051 135.785 11.3423 137.013 11.9939C138.239 12.6286 139.287 13.5587 140.063 14.7002L140.882 14.3689L140.038 12.1752L139.2 9.98145H125.088V10.7127H125.425C125.703 10.6992 125.98 10.7433 126.239 10.8422C126.498 10.9412 126.734 11.0929 126.932 11.2877C127.25 11.8582 127.385 12.5128 127.319 13.1627V23.5439C127.385 24.1939 127.25 24.8484 126.932 25.4189C126.734 25.6138 126.498 25.7654 126.239 25.8644C125.98 25.9634 125.703 26.0075 125.425 25.9939H125.088V26.7252H139.463L140.594 24.1064L141.707 21.5002L140.894 21.1377Z" fill="#424143"/>
<path d="M156.82 21.2002C155.973 22.5455 154.869 23.7096 153.57 24.6252C152.502 25.3786 151.232 25.7924 149.926 25.8127H149.682C149.071 25.8757 148.459 25.6986 147.976 25.3189C147.6 24.8342 147.425 24.223 147.488 23.6127V13.1627C147.42 12.5126 147.556 11.8575 147.876 11.2877C148.074 11.0948 148.311 10.9452 148.57 10.8484C148.829 10.7516 149.106 10.7096 149.382 10.7252H149.72V9.98145H142.801V10.7127H143.138C143.415 10.6992 143.692 10.7433 143.952 10.8422C144.211 10.9412 144.447 11.0929 144.645 11.2877C144.969 11.8561 145.107 12.5119 145.038 13.1627V23.5439C145.107 24.1948 144.969 24.8506 144.645 25.4189C144.447 25.6138 144.211 25.7654 143.952 25.8644C143.692 25.9634 143.415 26.0075 143.138 25.9939H142.801V26.7252H155.507L156.507 24.1189L157.501 21.5127L156.82 21.2002Z" fill="#424143"/>
<path d="M162.5 11.3127C162.68 11.12 162.899 10.9687 163.143 10.8694C163.387 10.7701 163.649 10.7252 163.913 10.7377H164.225V9.98145H157.562V10.7127H157.875C158.138 10.7014 158.4 10.7469 158.644 10.8462C158.888 10.9454 159.107 11.096 159.287 11.2877C159.589 11.8639 159.715 12.5157 159.65 13.1627V23.5439C159.713 24.1902 159.589 24.8409 159.294 25.4189C159.111 25.6092 158.89 25.7588 158.646 25.8578C158.401 25.9569 158.139 26.0033 157.875 25.9939H157.562V26.7252H164.194V25.9939H163.881C163.618 26.0065 163.356 25.9615 163.112 25.8622C162.868 25.7629 162.648 25.6117 162.469 25.4189C162.165 24.8436 162.036 24.1916 162.1 23.5439V13.1627C162.051 12.5203 162.19 11.8775 162.5 11.3127Z" fill="#424143"/>
<path d="M181.286 12.0628C180.057 10.8169 178.485 9.96616 176.769 9.61972C175.054 9.27329 173.274 9.44688 171.658 10.1183C170.042 10.7897 168.663 11.9283 167.699 13.3882C166.734 14.8482 166.227 16.5629 166.243 18.3128C166.243 20.6409 167.167 22.8737 168.814 24.5199C170.46 26.1661 172.693 27.0909 175.021 27.0909C177.349 27.0909 179.582 26.1661 181.228 24.5199C182.874 22.8737 183.799 20.6409 183.799 18.3128C183.825 17.1552 183.615 16.0045 183.183 14.9302C182.752 13.8559 182.106 12.8804 181.286 12.0628ZM179.28 23.8691C178.766 24.5013 178.118 25.0109 177.382 25.361C176.646 25.7111 175.842 25.8927 175.027 25.8927C174.212 25.8927 173.408 25.7111 172.672 25.361C171.936 25.0109 171.288 24.5013 170.774 23.8691C169.732 22.5232 169.211 20.6795 169.211 18.3378C169.211 15.9961 169.732 14.1482 170.774 12.7941C171.286 12.1598 171.934 11.6483 172.67 11.2969C173.406 10.9454 174.211 10.7631 175.027 10.7631C175.842 10.7631 176.648 10.9454 177.384 11.2969C178.119 11.6483 178.767 12.1598 179.28 12.7941C180.318 14.1441 180.836 15.992 180.836 18.3378C180.836 20.6836 180.318 22.5357 179.28 23.8941V23.8691Z" fill="#424143"/>
<path d="M196.582 9.98145V10.7127H196.945C197.241 10.6965 197.538 10.739 197.817 10.8377C198.097 10.9363 198.355 11.0893 198.576 11.2877C198.919 11.849 199.067 12.5086 198.995 13.1627V23.5314L190.87 9.98145H185.501V10.7127H185.826C186.099 10.6992 186.372 10.7434 186.628 10.8425C186.883 10.9416 187.114 11.0932 187.307 11.2877C187.62 11.8601 187.753 12.5136 187.688 13.1627V23.5439C187.754 24.1939 187.619 24.8484 187.301 25.4189C187.102 25.6146 186.865 25.7667 186.605 25.8657C186.345 25.9647 186.066 26.0084 185.788 25.9939H185.457V26.7252H191.47V25.9939H191.113C190.816 26.0106 190.518 25.9684 190.237 25.8697C189.956 25.771 189.697 25.6178 189.476 25.4189C189.132 24.8576 188.985 24.1981 189.057 23.5439V11.7002L198.207 26.7002H200.345V13.1627C200.276 12.5119 200.414 11.8561 200.738 11.2877C200.935 11.0923 201.171 10.9402 201.431 10.8411C201.69 10.7421 201.967 10.6984 202.245 10.7127H202.582V9.98145H196.582Z" fill="#424143"/>
<path d="M57.4617 33.6561C57.4999 33.7274 57.5559 33.7877 57.6242 33.8311C57.7216 33.898 57.8293 33.9487 57.943 33.981C58.0805 34.0248 58.2492 34.0748 58.4617 34.1248C58.6741 34.1757 58.8828 34.2404 59.0867 34.3185C59.2482 34.378 59.3983 34.4647 59.5305 34.5748C59.6431 34.6743 59.7345 34.7955 59.7992 34.931C59.8598 35.0841 59.8895 35.2477 59.8867 35.4123C59.89 35.6037 59.8516 35.7935 59.7742 35.9685C59.7009 36.1286 59.5919 36.2698 59.4555 36.3811C59.3101 36.4992 59.142 36.5864 58.9617 36.6373C58.7587 36.6964 58.5482 36.7258 58.3367 36.7248C58.0064 36.7257 57.6785 36.6686 57.368 36.5561C57.0523 36.4332 56.762 36.2531 56.5117 36.0248L56.9742 35.4748C57.1619 35.643 57.3723 35.784 57.5992 35.8935C57.8313 35.9964 58.0829 36.0476 58.3367 36.0436C58.5372 36.0533 58.7358 36.0009 58.9055 35.8935C58.9707 35.8481 59.0237 35.7873 59.0597 35.7164C59.0957 35.6455 59.1136 35.5668 59.1117 35.4873C59.1131 35.4147 59.1003 35.3425 59.0742 35.2748C59.0371 35.2065 58.986 35.1469 58.9242 35.0998C58.8305 35.0397 58.7298 34.9914 58.6242 34.956C58.493 34.9123 58.3305 34.8623 58.1242 34.8123C57.9122 34.7653 57.7035 34.7047 57.4992 34.631C57.335 34.5722 57.181 34.4878 57.043 34.381C56.9206 34.2854 56.824 34.1608 56.7617 34.0185C56.6897 33.8554 56.6555 33.678 56.6617 33.4998C56.6588 33.3243 56.6948 33.1502 56.7672 32.9903C56.8397 32.8303 56.9466 32.6884 57.0805 32.5748C57.2187 32.4584 57.3777 32.3693 57.5492 32.3123C57.7519 32.2514 57.9626 32.2219 58.1742 32.2248C58.4694 32.2223 58.763 32.2687 59.043 32.3623C59.3038 32.4589 59.5468 32.5983 59.7617 32.7748L59.3492 33.356C59.1655 33.2203 58.9661 33.107 58.7555 33.0185C58.5565 32.9406 58.3441 32.9024 58.1305 32.906C57.9435 32.8945 57.7582 32.9474 57.6055 33.056C57.548 33.1004 57.5012 33.1571 57.4687 33.2221C57.4363 33.287 57.4189 33.3584 57.418 33.4311C57.4186 33.5081 57.4334 33.5844 57.4617 33.6561Z" fill="#424143"/>
<path d="M67.0242 36.6626H66.2492V34.9376L64.5117 32.2876H65.418L66.668 34.2251L67.918 32.2876H68.7492L67.0117 34.9188L67.0242 36.6626Z" fill="#424143"/>
<path d="M74.282 33.6561C74.3202 33.7274 74.3762 33.7877 74.4445 33.8311C74.5419 33.898 74.6496 33.9487 74.7633 33.981C74.9008 34.0248 75.0695 34.0748 75.282 34.1248C75.4944 34.1757 75.7031 34.2404 75.907 34.3185C76.0685 34.378 76.2186 34.4647 76.3508 34.5748C76.4634 34.6743 76.5548 34.7955 76.6195 34.931C76.6801 35.0841 76.7098 35.2477 76.707 35.4123C76.7103 35.6037 76.672 35.7935 76.5945 35.9685C76.5213 36.1286 76.4122 36.2698 76.2758 36.3811C76.1304 36.4992 75.9624 36.5864 75.782 36.6373C75.579 36.6964 75.3685 36.7258 75.157 36.7248C74.8267 36.7257 74.4988 36.6686 74.1883 36.5561C73.8726 36.4332 73.5823 36.2531 73.332 36.0248L73.7945 35.4748C73.9822 35.643 74.1926 35.784 74.4195 35.8935C74.6516 35.9964 74.9032 36.0476 75.157 36.0436C75.3575 36.0533 75.5562 36.0009 75.7258 35.8935C75.791 35.8481 75.844 35.7873 75.88 35.7164C75.916 35.6455 75.9339 35.5668 75.932 35.4873C75.9334 35.4147 75.9206 35.3425 75.8945 35.2748C75.8574 35.2065 75.8063 35.1469 75.7445 35.0998C75.6508 35.0397 75.5501 34.9914 75.4445 34.956C75.3133 34.9123 75.1508 34.8623 74.9445 34.8123C74.7325 34.7653 74.5238 34.7047 74.3195 34.631C74.1553 34.5722 74.0013 34.4878 73.8633 34.381C73.7409 34.2854 73.6443 34.1608 73.582 34.0185C73.51 33.8554 73.4758 33.678 73.482 33.4998C73.4791 33.3243 73.5151 33.1502 73.5876 32.9903C73.66 32.8303 73.7669 32.6884 73.9008 32.5748C74.039 32.4584 74.1981 32.3693 74.3695 32.3123C74.5722 32.2514 74.783 32.2219 74.9945 32.2248C75.2897 32.2223 75.5833 32.2687 75.8633 32.3623C76.1241 32.4589 76.3671 32.5983 76.582 32.7748L76.1695 33.356C75.9858 33.2203 75.7864 33.107 75.5758 33.0185C75.3768 32.9406 75.1645 32.9024 74.9508 32.906C74.7638 32.8945 74.5785 32.9474 74.4258 33.056C74.3683 33.1004 74.3215 33.1571 74.289 33.2221C74.2566 33.287 74.2392 33.3584 74.2383 33.4311C74.2389 33.5081 74.2537 33.5844 74.282 33.6561Z" fill="#424143"/>
<path d="M83.75 36.6626H82.975V33.0001H81.5625V32.2876H85.1125V33.0001H83.75V36.6626Z" fill="#424143"/>
<path d="M93.5367 32.9813H91.0367V34.1063H93.2305V34.8001H91.0617V35.9688H93.5617V36.6626H90.293V32.2876H93.5305L93.5367 32.9813Z" fill="#424143"/>
<path d="M101.018 35.5876L99.6492 33.5376V36.6626H98.8867V32.2876H99.7055L101.037 34.3563L102.368 32.2876H103.187V36.6626H102.424V33.5376L101.018 35.5876Z" fill="#424143"/>
<path d="M116.762 36.6626H115.987V33.0001H114.6V32.2876H118.125V33.0001H116.737L116.762 36.6626Z" fill="#424143"/>
<path d="M126.575 32.9813H124.075V34.1063H126.269V34.8001H124.075V35.9688H126.575V36.6626H123.307V32.2876H126.544L126.575 32.9813Z" fill="#424143"/>
<path d="M135.357 36.2811C135.231 36.3752 135.097 36.4589 134.957 36.5311C134.809 36.599 134.654 36.6514 134.495 36.6873C134.309 36.7212 134.121 36.7379 133.932 36.7373C133.639 36.7445 133.348 36.6928 133.075 36.5855C132.803 36.4781 132.554 36.3173 132.345 36.1123C132.144 35.9052 131.984 35.6612 131.876 35.3936C131.651 34.8255 131.651 34.1929 131.876 33.6248C131.98 33.3544 132.137 33.1078 132.338 32.8998C132.543 32.6937 132.785 32.5283 133.051 32.4123C133.341 32.2951 133.651 32.2357 133.963 32.2373C134.148 32.237 134.332 32.2538 134.513 32.2873C134.668 32.3181 134.818 32.3642 134.963 32.4248C135.097 32.4851 135.225 32.5584 135.345 32.6436C135.463 32.7249 135.574 32.817 135.676 32.9186L135.182 33.4873C135.017 33.33 134.829 33.1974 134.626 33.0936C134.348 32.9513 134.03 32.9035 133.723 32.9577C133.415 33.0118 133.133 33.1649 132.92 33.3936C132.792 33.54 132.691 33.707 132.62 33.8873C132.478 34.2791 132.478 34.7081 132.62 35.0998C132.689 35.2829 132.791 35.4522 132.92 35.5998C133.052 35.7425 133.213 35.8566 133.391 35.935C133.57 36.0135 133.762 36.0547 133.957 36.0561C134.195 36.0633 134.431 36.0118 134.645 35.9061C134.851 35.7908 135.042 35.6502 135.213 35.4873L135.707 35.9873C135.599 36.0948 135.482 36.1931 135.357 36.2811Z" fill="#424143"/>
<path d="M141.649 34.8188V36.6938H140.887V32.3188H141.649V34.1376H143.749V32.2876H144.512V36.6626H143.749V34.7876L141.649 34.8188Z" fill="#424143"/>
<path d="M153.062 32.2876H153.825V36.6626H153.2L150.794 33.5376V36.6626H150V32.2876H150.713L153.05 35.3126L153.062 32.2876Z" fill="#424143"/>
<path d="M163.537 35.3437C163.429 35.6129 163.267 35.8574 163.062 36.0625C162.856 36.2742 162.609 36.4421 162.337 36.5562C161.737 36.8049 161.062 36.8049 160.462 36.5562C160.193 36.445 159.949 36.2814 159.743 36.075C159.542 35.8679 159.383 35.6238 159.274 35.3562C159.049 34.7947 159.049 34.1678 159.274 33.6062C159.386 33.3372 159.548 33.0914 159.749 32.8812C159.958 32.6741 160.204 32.5087 160.474 32.3937C160.767 32.2715 161.082 32.2098 161.399 32.2125C161.716 32.2102 162.03 32.2696 162.324 32.3875C162.595 32.4994 162.839 32.6653 163.043 32.875C163.244 33.0821 163.404 33.3262 163.512 33.5937C163.737 34.1553 163.737 34.7822 163.512 35.3437H163.537ZM162.793 33.875C162.722 33.6931 162.618 33.5258 162.487 33.3812C162.355 33.2359 162.193 33.1208 162.012 33.0437C161.815 32.9562 161.602 32.9135 161.387 32.9187C161.183 32.9189 160.981 32.9593 160.793 33.0375C160.617 33.1163 160.458 33.2288 160.324 33.3687C160.195 33.5136 160.093 33.6809 160.024 33.8625C159.947 34.0616 159.909 34.2738 159.912 34.4875C159.907 34.7012 159.946 34.9138 160.024 35.1125C160.092 35.2982 160.196 35.4683 160.331 35.6125C160.462 35.7562 160.622 35.8711 160.799 35.95C160.996 36.0361 161.21 36.0788 161.424 36.075C161.639 36.0802 161.853 36.0375 162.049 35.95C162.224 35.8749 162.382 35.7642 162.512 35.625C162.643 35.4805 162.747 35.3131 162.818 35.1312C162.96 34.7395 162.96 34.3105 162.818 33.9187L162.793 33.875Z" fill="#424143"/>
<path d="M169.012 32.2876H169.774V35.9688H172.074V36.6626H169.012V32.2876Z" fill="#424143"/>
<path d="M181.25 35.3437C181.142 35.6129 180.98 35.8574 180.775 36.0625C180.569 36.2742 180.322 36.4421 180.05 36.5562C179.45 36.8049 178.775 36.8049 178.175 36.5562C177.905 36.4465 177.66 36.2827 177.456 36.075C177.255 35.8679 177.096 35.6238 176.987 35.3562C176.762 34.7947 176.762 34.1678 176.987 33.6062C177.099 33.3372 177.26 33.0914 177.462 32.8812C177.671 32.6741 177.917 32.5087 178.187 32.3937C178.48 32.2715 178.795 32.2098 179.112 32.2125C179.429 32.2102 179.743 32.2696 180.037 32.3875C180.308 32.4994 180.552 32.6653 180.756 32.875C180.957 33.0821 181.116 33.3262 181.225 33.5937C181.45 34.1553 181.45 34.7822 181.225 35.3437H181.25ZM180.506 33.875C180.435 33.6931 180.331 33.5258 180.2 33.3812C180.066 33.2374 179.905 33.1225 179.725 33.0437C179.528 32.9562 179.315 32.9135 179.1 32.9187C178.896 32.9189 178.694 32.9593 178.506 33.0375C178.33 33.1163 178.17 33.2288 178.037 33.3687C177.908 33.5136 177.806 33.6809 177.737 33.8625C177.66 34.0616 177.622 34.2738 177.625 34.4875C177.62 34.7012 177.658 34.9138 177.737 35.1125C177.804 35.2982 177.909 35.4683 178.044 35.6125C178.175 35.7562 178.334 35.8711 178.512 35.95C178.709 36.0367 178.922 36.0794 179.137 36.075C179.352 36.0802 179.566 36.0375 179.762 35.95C179.937 35.8749 180.095 35.7642 180.225 35.625C180.356 35.4805 180.46 35.3131 180.531 35.1312C180.673 34.7395 180.673 34.3105 180.531 33.9187L180.506 33.875Z" fill="#424143"/>
<path d="M190.238 36.3187C189.956 36.4961 189.645 36.621 189.319 36.6875C189.137 36.7204 188.953 36.7371 188.769 36.7375C188.45 36.7411 188.134 36.6838 187.838 36.5687C187.572 36.4588 187.33 36.2965 187.129 36.0914C186.927 35.8863 186.768 35.6427 186.663 35.375C186.554 35.0895 186.499 34.7866 186.5 34.4812C186.499 34.1814 186.556 33.8841 186.669 33.6062C186.774 33.3367 186.931 33.0903 187.131 32.8812C187.335 32.6715 187.58 32.5057 187.85 32.3937C188.137 32.272 188.445 32.2103 188.756 32.2125C188.932 32.2112 189.108 32.2237 189.281 32.25C189.428 32.2776 189.572 32.3173 189.713 32.3687C189.844 32.419 189.972 32.4796 190.094 32.55C190.214 32.6278 190.329 32.7134 190.438 32.8062L189.95 33.3875C189.869 33.3175 189.783 33.2528 189.694 33.1937C189.606 33.1377 189.514 33.0876 189.419 33.0437C189.317 33.0042 189.213 32.9729 189.106 32.95C188.979 32.9399 188.852 32.9399 188.725 32.95C188.532 32.9483 188.342 32.991 188.169 33.075C187.997 33.152 187.843 33.265 187.719 33.4062C187.587 33.5494 187.485 33.7172 187.419 33.9C187.34 34.0988 187.302 34.3113 187.306 34.525C187.306 34.7379 187.342 34.9492 187.413 35.15C187.48 35.3338 187.584 35.5018 187.719 35.6437C187.85 35.7856 188.01 35.8985 188.188 35.975C188.385 36.0602 188.598 36.1007 188.813 36.0937C189.012 36.0957 189.211 36.064 189.4 36C189.569 35.9489 189.728 35.8685 189.869 35.7625V34.8875H188.75V34.2187H190.625V36.0562C190.504 36.1551 190.374 36.243 190.238 36.3187Z" fill="#424143"/>
<path d="M197.845 36.6626H197.07V34.9376L195.332 32.2876H196.251L197.501 34.2251L198.751 32.2876H199.632L197.895 34.9188L197.845 36.6626Z" fill="#424143"/>
<path d="M208.468 7.8691C208.6 7.82189 208.717 7.73981 208.805 7.6316C208.897 7.50691 208.943 7.35483 208.937 7.20035C208.943 7.10073 208.925 7.00109 208.885 6.90975C208.845 6.81841 208.783 6.73804 208.705 6.67535C208.525 6.54198 208.304 6.47567 208.08 6.48785H207.124V8.6441H207.599V7.95035H207.974L208.437 8.6441H208.993L208.468 7.8691ZM208.355 7.45035C208.318 7.48237 208.274 7.50659 208.227 7.52161C208.18 7.53663 208.13 7.54215 208.08 7.53785H207.605V6.91285H208.068C208.167 6.90647 208.266 6.93281 208.349 6.98785C208.384 7.01789 208.411 7.05557 208.428 7.09788C208.445 7.1402 208.453 7.18599 208.449 7.2316C208.45 7.27264 208.442 7.3134 208.426 7.35113C208.41 7.38886 208.386 7.42269 208.355 7.45035ZM208.468 7.8691C208.6 7.82189 208.717 7.73981 208.805 7.6316C208.897 7.50691 208.943 7.35483 208.937 7.20035C208.943 7.10073 208.925 7.00109 208.885 6.90975C208.845 6.81841 208.783 6.73804 208.705 6.67535C208.525 6.54198 208.304 6.47567 208.08 6.48785H207.124V8.6441H207.599V7.95035H207.974L208.437 8.6441H208.993L208.468 7.8691ZM208.355 7.45035C208.318 7.48237 208.274 7.50659 208.227 7.52161C208.18 7.53663 208.13 7.54215 208.08 7.53785H207.605V6.91285H208.068C208.167 6.90647 208.266 6.93281 208.349 6.98785C208.384 7.01789 208.411 7.05557 208.428 7.09788C208.445 7.1402 208.453 7.18599 208.449 7.2316C208.45 7.27264 208.442 7.3134 208.426 7.35113C208.41 7.38886 208.386 7.42269 208.355 7.45035ZM209.837 6.82535C209.737 6.59137 209.593 6.37907 209.412 6.20035C209.232 6.01747 209.02 5.86917 208.787 5.76285C208.534 5.65657 208.261 5.60339 207.987 5.6066C207.712 5.60314 207.439 5.65855 207.187 5.7691C206.7 5.97915 206.313 6.3686 206.105 6.8566C206.003 7.10647 205.95 7.37394 205.949 7.6441C205.95 7.91223 206.003 8.17766 206.105 8.42535C206.21 8.65809 206.356 8.86986 206.537 9.05035C206.716 9.23257 206.928 9.37894 207.162 9.4816C207.535 9.63976 207.946 9.68316 208.344 9.60627C208.742 9.52938 209.107 9.33568 209.395 9.04991C209.682 8.76415 209.877 8.39928 209.956 8.00193C210.035 7.60458 209.993 7.19277 209.837 6.8191V6.82535ZM209.624 8.31285C209.534 8.52645 209.405 8.72141 209.243 8.88785C209.075 9.05805 208.874 9.19278 208.653 9.28403C208.432 9.37529 208.195 9.42122 207.955 9.4191C207.713 9.42178 207.473 9.37499 207.249 9.2816C207.036 9.19179 206.842 9.06002 206.68 8.8941C206.518 8.72861 206.388 8.53341 206.299 8.3191C206.211 8.09629 206.167 7.85867 206.168 7.6191C206.165 7.37678 206.212 7.13646 206.305 6.91285C206.395 6.69854 206.524 6.50334 206.687 6.33785C206.848 6.17192 207.042 6.04015 207.255 5.95035C207.48 5.85124 207.723 5.80219 207.968 5.8066C208.206 5.80235 208.442 5.84672 208.663 5.93699C208.883 6.02726 209.083 6.16154 209.249 6.3316C209.408 6.49669 209.535 6.68946 209.624 6.90035C209.808 7.35318 209.808 7.86002 209.624 8.31285ZM208.805 7.6191C208.897 7.49441 208.943 7.34233 208.937 7.18785C208.943 7.08823 208.925 6.98859 208.885 6.89725C208.845 6.80591 208.783 6.72554 208.705 6.66285C208.525 6.52948 208.304 6.46317 208.08 6.47535H207.124V8.6316H207.599V7.95035H207.974L208.437 8.6441H208.993L208.462 7.8691C208.596 7.82289 208.715 7.74074 208.805 7.6316V7.6191ZM208.355 7.43785C208.318 7.46987 208.274 7.49409 208.227 7.50911C208.18 7.52413 208.13 7.52965 208.08 7.52535H207.605V6.90035H208.068C208.167 6.89397 208.266 6.92031 208.349 6.97535C208.384 7.00539 208.411 7.04307 208.428 7.08538C208.445 7.1277 208.453 7.17349 208.449 7.2191C208.452 7.26221 208.445 7.30539 208.429 7.34542C208.413 7.38546 208.387 7.42132 208.355 7.45035V7.43785Z" fill="#750F21"/>
<path d="M13.3625 25.2937L14.725 23.5249H11.875L13.3625 25.2937Z" fill="#424143"/>
<path d="M9.93125 16.1436H12.9125L11.8062 17.4623C11.6522 17.6866 11.5755 17.9551 11.5879 18.227C11.6003 18.4988 11.7011 18.7592 11.875 18.9686C12.5 19.5936 15.625 21.0248 15.625 21.0248C15.625 21.0248 16.1687 21.3311 17.1187 20.5186L16.15 21.9186L12.4562 20.6686C12.2092 20.5934 11.9472 20.5808 11.6941 20.6321C11.441 20.6834 11.2046 20.7969 11.0062 20.9623C10.4875 21.4936 10.3812 21.6498 10.3812 21.6873L9.93125 20.6373L10.9062 19.1561C11.1441 18.8826 11.2644 18.5264 11.241 18.1647C11.2176 17.8031 11.0524 17.4653 10.7812 17.2248C9.825 16.1436 9.93125 16.1436 9.93125 16.1436Z" fill="#424143"/>
<path d="M11.4688 13.2876L11.6938 11.7251H12.9L11.4688 13.2876Z" fill="#424143"/>
<path d="M15.832 13.5936L16.8758 11.5311L20.5508 11.5186L15.832 13.5936Z" fill="#424143"/>
<path d="M32.9508 24.8938C31.8008 32.85 25.482 35.3563 18.7508 37.1875C17.233 37.5791 15.7652 38.1432 14.3758 38.8688L14.0508 39.0438L13.457 39.3938C13.3133 39.4875 13.1695 39.5688 13.032 39.6625C11.0325 40.8759 9.4666 42.689 8.55701 44.8438L8.49451 45.0063C8.49451 45.0688 8.45701 45.125 8.43826 45.175C8.43407 45.2145 8.43407 45.2543 8.43826 45.2938C8.43826 45.3563 8.40701 45.3875 8.40701 45.3875C7.51951 44.4188 7.73201 42.8875 8.09451 41.7188C8.26556 41.1691 8.48518 40.6357 8.75076 40.125C8.48932 39.9581 8.293 39.7066 8.19451 39.4125C7.78201 38.1625 8.90076 35.9813 9.71951 34.6625C9.79451 34.5375 9.86326 34.4187 9.93826 34.3062L10.1695 33.95C10.2445 33.8375 10.3008 33.7438 10.357 33.675L10.4508 33.5438C12.682 30.4188 16.4695 27.7375 21.532 23.4813C31.0133 15.5188 25.3883 6.68125 24.982 6.0625C35.5633 17.0313 22.707 29.7375 22.707 29.7375C32.9258 25.1562 31.7445 16.15 31.6758 15.6438C31.782 16.05 33.4258 21.6188 32.9508 24.8938Z" fill="#8C6431"/>
<path d="M6.62024 34.5998C4.92152 33.0853 3.50941 31.2773 2.45149 29.2623C1.39069 27.2306 0.694721 25.0284 0.395242 22.7561C0.257732 21.6156 0.226346 20.4648 0.301491 19.3186C0.301491 19.031 0.301492 18.7435 0.351492 18.456L0.470242 17.606L0.626491 16.7498C0.676491 16.4685 0.757742 16.1873 0.820242 15.906C1.63755 12.5033 3.35045 9.3812 5.78123 6.86365C8.21201 4.34611 11.2721 2.52481 14.6441 1.58871C18.0162 0.652607 21.5772 0.635796 24.9579 1.54002C28.3386 2.44424 31.4158 4.23657 33.8702 6.73105C35.5094 8.38983 36.8349 10.3315 37.7827 12.4623C38.7255 14.5918 39.2882 16.87 39.4452 19.1936L39.4827 20.0623C39.5046 20.3515 39.5046 20.6419 39.4827 20.931C39.4827 21.5123 39.4202 22.0873 39.3827 22.6686L39.0952 24.381C38.989 24.9498 38.8077 25.4998 38.664 26.0623C37.3141 30.5111 34.4366 34.3404 30.539 36.8748C26.6485 39.3294 22.0115 40.3197 17.4577 39.6685C18.5798 39.7842 19.7107 39.7842 20.8327 39.6685L21.6702 39.6123C21.9515 39.6123 22.2265 39.5186 22.5015 39.4748C23.056 39.3972 23.605 39.2845 24.1452 39.1373C26.3167 38.5974 28.3712 37.6654 30.2077 36.3873C33.882 33.8547 36.5498 30.1118 37.7452 25.8123C37.864 25.2748 38.0202 24.7435 38.114 24.1998L38.3452 22.5686L38.414 20.9185C38.4327 20.646 38.4327 20.3724 38.414 20.0998L38.364 19.2748C38.1892 17.0847 37.6329 14.942 36.7202 12.9435C35.8106 10.9463 34.5536 9.12641 33.0077 7.56855C31.457 6.01864 29.6489 4.74979 27.664 3.81855C23.6618 1.92827 19.1167 1.52716 14.8452 2.6873C10.5652 3.84896 6.82635 6.47123 4.27649 10.0998C3.01444 11.9196 2.08544 13.949 1.53274 16.0935C1.46399 16.3623 1.37649 16.6248 1.32024 16.8935L1.18274 17.6873L1.05149 18.5123C1.00149 18.781 1.00774 19.0623 0.982741 19.3373L0.926491 20.1873V20.606V21.0186C0.926491 21.5748 0.970242 22.1311 1.00774 22.6873C1.20778 24.9154 1.80023 27.0905 2.75774 29.1123C3.72699 31.1459 5.03287 33.0012 6.62024 34.5998Z" fill="#750F21"/>
</g>
<defs>
<clipPath id="clip0_520_16729">
<rect width="210" height="44.375" fill="white" transform="translate(0 0.8125)"/>
</clipPath>
</defs>
</svg>
