<svg width="211" height="46" viewBox="0 0 211 46" fill="none" xmlns="http://www.w3.org/2000/svg">
<g clip-path="url(#clip0_453_9517)">
<path d="M72.9631 22.761C71.9731 24.1851 70.6956 25.3859 69.2131 26.286C67.7938 27.0131 66.2132 27.3679 64.6193 27.3172H64.2568C63.5947 27.3848 62.9326 27.1895 62.4131 26.7735C62.2034 26.5122 62.0475 26.212 61.9542 25.8902C61.8609 25.5685 61.832 25.2314 61.8693 24.8985V19.936H63.6131C64.4358 19.8635 65.2537 20.1197 65.8881 20.6485C66.4313 21.3373 66.7362 22.184 66.7568 23.061H67.5881V15.786H66.7568C66.6381 17.036 66.3631 17.811 65.9443 18.2172C65.5256 18.6235 64.7381 18.8422 63.5881 18.8422H61.8443V14.836C61.789 14.2291 61.9754 13.6249 62.3631 13.1547C62.8329 12.7664 63.4374 12.5799 64.0443 12.636H65.1006C66.4848 12.6336 67.8487 12.9681 69.0748 13.6105C70.3009 14.2529 71.3522 15.184 72.1381 16.3235L72.9568 15.9922L72.1131 13.7985L71.2756 11.6047H57.1631V12.336H57.4943C57.7726 12.3216 58.0507 12.3652 58.3111 12.4642C58.5715 12.5632 58.8085 12.7154 59.0068 12.911C59.3251 13.4815 59.4604 14.136 59.3943 14.786V25.1672C59.4604 25.8172 59.3251 26.4717 59.0068 27.0422C58.8085 27.2378 58.5715 27.39 58.3111 27.489C58.0507 27.588 57.7726 27.6317 57.4943 27.6172H57.1631V28.3485H71.5381L72.6631 25.7297L73.7818 23.1235L72.9631 22.761Z" fill="white"/>
<path d="M91.374 27.5809C90.8439 27.5395 90.3436 27.3191 89.9553 26.9559C89.5028 26.4248 89.1569 25.8116 88.9365 25.1497L83.6865 11.5872H81.4053L76.1615 25.1497C75.9393 25.8184 75.5771 26.432 75.099 26.9497C74.6547 27.3256 74.0991 27.5452 73.5178 27.5747L73.2178 27.6122V28.3434H79.7803V27.6184L79.324 27.5559C78.3282 27.4392 77.7344 27.158 77.5428 26.7122C77.3553 26.2684 77.474 25.4622 77.9053 24.3122L78.7178 22.1184H85.1428L86.2428 25.1684C86.5678 26.0497 86.624 26.6497 86.424 26.9809C86.224 27.3122 85.6803 27.5059 84.7803 27.6059L84.374 27.6434V28.3747H91.6428V27.6184L91.374 27.5809ZM79.124 21.0372L81.9678 13.3934L84.7615 21.0372H79.124Z" fill="white"/>
<path d="M103.207 20.3992V21.1304L103.582 21.1804C104.182 21.2113 104.749 21.4628 105.175 21.8867C105.428 22.2048 105.584 22.5887 105.625 22.9929C105.667 23.381 105.648 23.7732 105.569 24.1554C105.502 24.5342 105.373 24.8995 105.188 25.2367C105.055 25.4684 104.904 25.6898 104.738 25.8992C104.232 26.4611 103.605 26.9009 102.905 27.1856C102.204 27.4703 101.449 27.5925 100.694 27.5429C99.8823 27.5538 99.0798 27.3692 98.3543 27.0048C97.6287 26.6404 97.0015 26.1069 96.5254 25.4492C95.3867 23.8623 94.8164 21.9378 94.9067 19.9867C94.819 18.0503 95.3415 16.1352 96.4004 14.5117C96.8186 13.8697 97.3915 13.3431 98.0665 12.9805C98.7415 12.6179 99.4968 12.4309 100.263 12.4367C101.483 12.4506 102.665 12.8608 103.632 13.6054C104.883 14.5764 105.943 15.7718 106.757 17.1304L107.688 16.8679L106.182 11.6429H105.388L104.919 12.8179H104.869C103.503 11.7506 101.816 11.1758 100.082 11.1867C98.9903 11.1626 97.9065 11.3734 96.9036 11.8047C95.9008 12.2361 95.0024 12.8779 94.2692 13.6867C92.7101 15.3887 91.8721 17.6292 91.9317 19.9367C91.906 21.0931 92.1142 22.2428 92.5438 23.3168C92.9734 24.3908 93.6155 25.367 94.4317 26.1867C95.2279 27.0046 96.1848 27.6489 97.2421 28.0792C98.2994 28.5094 99.4343 28.7162 100.575 28.6867C102.581 28.7171 104.518 27.9533 105.963 26.5617L106.769 28.2679H107.932V23.5804C107.873 22.9337 107.998 22.2835 108.294 21.7054C108.469 21.5153 108.685 21.3667 108.925 21.2704C109.165 21.1742 109.424 21.1328 109.682 21.1492H109.994V20.3992H103.207Z" fill="white"/>
<path d="M125.322 22.8235C124.476 24.1688 123.372 25.3329 122.072 26.2485C120.996 27.0079 119.715 27.422 118.397 27.436H118.154C117.542 27.499 116.931 27.3219 116.447 26.9422C116.071 26.4575 115.897 25.8463 115.96 25.236V14.786C115.892 14.1359 116.027 13.4808 116.347 12.911C116.546 12.7181 116.782 12.5685 117.042 12.4717C117.301 12.3749 117.577 12.3329 117.854 12.3485H118.191V11.6047H111.272V12.336H111.61C111.887 12.3217 112.164 12.3654 112.424 12.4644C112.683 12.5635 112.919 12.7156 113.116 12.911C113.441 13.4793 113.578 14.1352 113.51 14.786V25.1672C113.578 25.818 113.441 26.4739 113.116 27.0422C112.919 27.2377 112.683 27.3898 112.424 27.4888C112.164 27.5878 111.887 27.6316 111.61 27.6172H111.272V28.3485H123.979L124.979 25.7422L125.947 23.136L125.322 22.8235Z" fill="white"/>
<path d="M141.844 22.761C140.843 24.1866 139.555 25.3873 138.063 26.286C136.638 27.0162 135.051 27.3711 133.451 27.3172H133.094C132.761 27.3545 132.424 27.3257 132.103 27.2324C131.781 27.1391 131.481 26.9831 131.219 26.7735C131.01 26.5122 130.854 26.212 130.76 25.8902C130.667 25.5685 130.638 25.2314 130.676 24.8985V19.936H132.419C133.244 19.8618 134.065 20.1181 134.701 20.6485C135.264 21.3307 135.591 22.1772 135.632 23.061H136.463V15.786H135.632C135.513 17.036 135.238 17.811 134.819 18.2172C134.401 18.6235 133.613 18.8422 132.463 18.8422H130.719V14.836C130.664 14.2291 130.85 13.6249 131.238 13.1547C131.708 12.7671 132.312 12.5806 132.919 12.636H133.976C135.365 12.6284 136.735 12.9655 137.963 13.6172C139.189 14.2519 140.237 15.182 141.013 16.3235L141.832 15.9922L140.988 13.7985L140.151 11.6047H126.038V12.336H126.376C126.653 12.3224 126.93 12.3666 127.189 12.4655C127.448 12.5645 127.684 12.7162 127.882 12.911C128.2 13.4815 128.335 14.136 128.269 14.786V25.1672C128.335 25.8172 128.2 26.4717 127.882 27.0422C127.684 27.237 127.448 27.3887 127.189 27.4877C126.93 27.5867 126.653 27.6308 126.376 27.6172H126.038V28.3485H140.413L141.544 25.7297L142.657 23.1235L141.844 22.761Z" fill="white"/>
<path d="M157.768 22.8235C156.922 24.1688 155.817 25.3329 154.518 26.2485C153.45 27.0019 152.18 27.4157 150.874 27.436H150.63C150.019 27.499 149.407 27.3219 148.924 26.9422C148.548 26.4575 148.373 25.8463 148.437 25.236V14.786C148.368 14.1359 148.504 13.4808 148.824 12.911C149.023 12.7181 149.259 12.5685 149.518 12.4717C149.777 12.3749 150.054 12.3329 150.33 12.3485H150.668V11.6047H143.749V12.336H144.087C144.364 12.3224 144.641 12.3666 144.9 12.4655C145.159 12.5645 145.395 12.7162 145.593 12.911C145.917 13.4793 146.055 14.1352 145.987 14.786V25.1672C146.055 25.818 145.917 26.4739 145.593 27.0422C145.395 27.237 145.159 27.3887 144.9 27.4877C144.641 27.5867 144.364 27.6308 144.087 27.6172H143.749V28.3485H156.455L157.455 25.7422L158.449 23.136L157.768 22.8235Z" fill="white"/>
<path d="M163.448 12.936C163.628 12.7433 163.847 12.592 164.091 12.4927C164.335 12.3934 164.598 12.3484 164.861 12.361H165.173V11.6047H158.511V12.336H158.823C159.086 12.3247 159.348 12.3702 159.592 12.4695C159.836 12.5687 160.055 12.7193 160.236 12.911C160.537 13.4872 160.663 14.139 160.598 14.786V25.1672C160.661 25.8134 160.538 26.4642 160.242 27.0422C160.059 27.2325 159.838 27.382 159.594 27.4811C159.349 27.5802 159.087 27.6266 158.823 27.6172H158.511V28.3485H165.142V27.6172H164.829C164.566 27.6298 164.304 27.5848 164.06 27.4855C163.816 27.3862 163.597 27.235 163.417 27.0422C163.113 26.4669 162.985 25.8149 163.048 25.1672V14.786C162.999 14.1436 163.138 13.5008 163.448 12.936Z" fill="white"/>
<path d="M182.235 13.6866C181.006 12.4406 179.433 11.5899 177.718 11.2435C176.002 10.8971 174.223 11.0707 172.607 11.7421C170.99 12.4135 169.612 13.5521 168.647 15.012C167.682 16.4719 167.175 18.1867 167.191 19.9366C167.191 22.2647 168.116 24.4974 169.762 26.1437C171.408 27.7899 173.641 28.7147 175.969 28.7147C178.297 28.7147 180.53 27.7899 182.176 26.1437C183.822 24.4974 184.747 22.2647 184.747 19.9366C184.773 18.779 184.564 17.6282 184.132 16.5539C183.7 15.4796 183.054 14.5042 182.235 13.6866ZM180.228 25.4928C179.714 26.125 179.066 26.6347 178.33 26.9848C177.594 27.3348 176.79 27.5165 175.975 27.5165C175.16 27.5165 174.356 27.3348 173.62 26.9848C172.884 26.6347 172.236 26.125 171.722 25.4928C170.68 24.147 170.16 22.3033 170.16 19.9616C170.16 17.6199 170.68 15.772 171.722 14.4178C172.235 13.7836 172.883 13.2721 173.619 12.9206C174.354 12.5692 175.16 12.3868 175.975 12.3868C176.791 12.3868 177.596 12.5692 178.332 12.9206C179.068 13.2721 179.716 13.7836 180.228 14.4178C181.266 15.7678 181.785 17.6158 181.785 19.9616C181.785 22.3074 181.266 24.1595 180.228 25.5178V25.4928Z" fill="white"/>
<path d="M197.53 11.6047V12.336H197.893C198.189 12.3198 198.486 12.3623 198.766 12.461C199.046 12.5596 199.303 12.7126 199.524 12.911C199.868 13.4723 200.015 14.1318 199.943 14.786V25.1547L191.818 11.6047H186.449V12.336H186.774C187.047 12.3225 187.321 12.3667 187.576 12.4658C187.831 12.5648 188.063 12.7165 188.255 12.911C188.568 13.4834 188.701 14.1369 188.637 14.786V25.1672C188.703 25.8172 188.567 26.4717 188.249 27.0422C188.051 27.2378 187.814 27.39 187.553 27.489C187.293 27.588 187.015 27.6317 186.737 27.6172H186.405V28.3485H192.418V27.6172H192.062C191.764 27.6339 191.466 27.5917 191.185 27.493C190.904 27.3943 190.646 27.2411 190.424 27.0422C190.08 26.4809 189.933 25.8214 190.005 25.1672V13.3235L199.155 28.3235H201.293V14.786C201.224 14.1352 201.362 13.4793 201.687 12.911C201.884 12.7156 202.12 12.5635 202.379 12.4644C202.638 12.3654 202.915 12.3217 203.193 12.336H203.53V11.6047H197.53Z" fill="white"/>
<path d="M58.41 35.2803C58.4481 35.3517 58.5041 35.412 58.5725 35.4553C58.6699 35.5223 58.7775 35.573 58.8912 35.6053C59.0287 35.6491 59.1975 35.6991 59.41 35.7491C59.6223 35.7999 59.8311 35.8647 60.035 35.9428C60.1964 36.0023 60.3465 36.0889 60.4787 36.1991C60.5913 36.2986 60.6827 36.4197 60.7475 36.5553C60.808 36.7084 60.8378 36.872 60.835 37.0366C60.8383 37.228 60.7999 37.4178 60.7225 37.5928C60.6492 37.7529 60.5401 37.894 60.4037 38.0053C60.2583 38.1235 60.0903 38.2107 59.91 38.2616C59.7069 38.3206 59.4964 38.3501 59.285 38.3491C58.9547 38.35 58.6267 38.2929 58.3162 38.1803C58.0005 38.0575 57.7102 37.8774 57.46 37.6491L57.9225 37.0991C58.1101 37.2673 58.3205 37.4082 58.5475 37.5178C58.7795 37.6207 59.0312 37.6719 59.285 37.6678C59.4855 37.6776 59.6841 37.6252 59.8537 37.5178C59.919 37.4724 59.972 37.4115 60.008 37.3406C60.044 37.2698 60.0618 37.1911 60.06 37.1116C60.0613 37.039 60.0486 36.9668 60.0225 36.8991C59.9854 36.8308 59.9343 36.7712 59.8725 36.7241C59.7788 36.664 59.678 36.6157 59.5725 36.5803C59.4412 36.5366 59.2787 36.4866 59.0725 36.4366C58.8605 36.3896 58.6517 36.329 58.4475 36.2553C58.2832 36.1964 58.1292 36.1121 57.9912 36.0053C57.8689 35.9096 57.7722 35.7851 57.71 35.6428C57.6379 35.4797 57.6037 35.3023 57.61 35.1241C57.607 34.9485 57.6431 34.7745 57.7155 34.6146C57.7879 34.4546 57.8949 34.3127 58.0287 34.1991C58.1669 34.0826 58.326 33.9936 58.4975 33.9366C58.7001 33.8757 58.9109 33.8462 59.1225 33.8491C59.4177 33.8465 59.7112 33.893 59.9912 33.9866C60.2521 34.0831 60.495 34.2225 60.71 34.3991L60.2975 34.9803C60.1137 34.8446 59.9144 34.7313 59.7037 34.6428C59.5047 34.5649 59.2924 34.5267 59.0787 34.5303C58.8917 34.5188 58.7064 34.5717 58.5537 34.6803C58.4962 34.7246 58.4495 34.7814 58.417 34.8463C58.3845 34.9113 58.3671 34.9827 58.3662 35.0553C58.3668 35.1324 58.3816 35.2087 58.41 35.2803Z" fill="white"/>
<path d="M67.9725 38.2864H67.1975V36.5614L65.46 33.9114H66.3662L67.6162 35.8489L68.8662 33.9114H69.6975L67.96 36.5426L67.9725 38.2864Z" fill="white"/>
<path d="M75.2303 35.2803C75.2684 35.3517 75.3244 35.412 75.3928 35.4553C75.4902 35.5223 75.5978 35.573 75.7115 35.6053C75.849 35.6491 76.0178 35.6991 76.2303 35.7491C76.4426 35.7999 76.6514 35.8647 76.8553 35.9428C77.0167 36.0023 77.1668 36.0889 77.299 36.1991C77.4116 36.2986 77.503 36.4197 77.5678 36.5553C77.6283 36.7084 77.6581 36.872 77.6553 37.0366C77.6586 37.228 77.6202 37.4178 77.5428 37.5928C77.4695 37.7529 77.3604 37.894 77.224 38.0053C77.0786 38.1235 76.9106 38.2107 76.7303 38.2616C76.5272 38.3206 76.3167 38.3501 76.1053 38.3491C75.775 38.35 75.4471 38.2929 75.1365 38.1803C74.8208 38.0575 74.5305 37.8774 74.2803 37.6491L74.7428 37.0991C74.9304 37.2673 75.1408 37.4082 75.3678 37.5178C75.5998 37.6207 75.8515 37.6719 76.1053 37.6678C76.3058 37.6776 76.5044 37.6252 76.674 37.5178C76.7393 37.4724 76.7923 37.4115 76.8283 37.3406C76.8643 37.2698 76.8821 37.1911 76.8803 37.1116C76.8816 37.039 76.8689 36.9668 76.8428 36.8991C76.8057 36.8308 76.7546 36.7712 76.6928 36.7241C76.5991 36.664 76.4983 36.6157 76.3928 36.5803C76.2615 36.5366 76.099 36.4866 75.8928 36.4366C75.6808 36.3896 75.472 36.329 75.2678 36.2553C75.1035 36.1964 74.9495 36.1121 74.8115 36.0053C74.6892 35.9096 74.5925 35.7851 74.5303 35.6428C74.4582 35.4797 74.424 35.3023 74.4303 35.1241C74.4274 34.9485 74.4634 34.7745 74.5358 34.6146C74.6082 34.4546 74.7152 34.3127 74.849 34.1991C74.9872 34.0826 75.1463 33.9936 75.3178 33.9366C75.5204 33.8757 75.7312 33.8462 75.9428 33.8491C76.238 33.8465 76.5315 33.893 76.8115 33.9866C77.0724 34.0831 77.3153 34.2225 77.5303 34.3991L77.1178 34.9803C76.934 34.8446 76.7347 34.7313 76.524 34.6428C76.325 34.5649 76.1127 34.5267 75.899 34.5303C75.712 34.5188 75.5267 34.5717 75.374 34.6803C75.3165 34.7246 75.2698 34.7814 75.2373 34.8463C75.2048 34.9113 75.1875 34.9827 75.1865 35.0553C75.1871 35.1324 75.2019 35.2087 75.2303 35.2803Z" fill="white"/>
<path d="M84.6982 38.2864H83.9232V34.6239H82.5107V33.9114H86.0607V34.6239H84.6982V38.2864Z" fill="white"/>
<path d="M94.485 34.6051H91.985V35.7301H94.1787V36.4239H92.01V37.5926H94.51V38.2864H91.2412V33.9114H94.4787L94.485 34.6051Z" fill="white"/>
<path d="M101.966 37.2114L100.597 35.1614V38.2864H99.835V33.9114H100.654L101.985 35.9801L103.316 33.9114H104.135V38.2864H103.372V35.1614L101.966 37.2114Z" fill="white"/>
<path d="M117.708 38.2864H116.933V34.6239H115.546V33.9114H119.071V34.6239H117.683L117.708 38.2864Z" fill="white"/>
<path d="M127.526 34.6051H125.026V35.7301H127.219V36.4239H125.026V37.5926H127.526V38.2864H124.257V33.9114H127.494L127.526 34.6051Z" fill="white"/>
<path d="M136.305 37.9044C136.179 37.9985 136.045 38.0821 135.905 38.1544C135.757 38.2223 135.602 38.2747 135.443 38.3106C135.257 38.3444 135.069 38.3612 134.88 38.3606C134.587 38.3678 134.296 38.3161 134.023 38.2088C133.751 38.1014 133.502 37.9406 133.293 37.7356C133.092 37.5285 132.933 37.2845 132.824 37.0169C132.599 36.4488 132.599 35.8162 132.824 35.2481C132.928 34.9777 133.085 34.7311 133.287 34.5231C133.491 34.317 133.733 34.1516 133.999 34.0356C134.289 33.9184 134.599 33.859 134.912 33.8606C135.096 33.8603 135.28 33.8771 135.462 33.9106C135.616 33.9414 135.767 33.9875 135.912 34.0481C136.046 34.1084 136.173 34.1817 136.293 34.2669C136.412 34.3482 136.522 34.4402 136.624 34.5419L136.13 35.1106C135.965 34.9533 135.778 34.8207 135.574 34.7169C135.296 34.5746 134.979 34.5268 134.671 34.581C134.363 34.6351 134.081 34.7881 133.868 35.0169C133.741 35.1633 133.639 35.3302 133.568 35.5106C133.426 35.9024 133.426 36.3314 133.568 36.7231C133.638 36.9062 133.739 37.0754 133.868 37.2231C134.001 37.3658 134.161 37.4799 134.34 37.5583C134.518 37.6368 134.711 37.678 134.905 37.6794C135.143 37.6866 135.38 37.6351 135.593 37.5294C135.799 37.4141 135.99 37.2735 136.162 37.1106L136.655 37.6106C136.547 37.7181 136.43 37.8164 136.305 37.9044Z" fill="white"/>
<path d="M142.597 36.4426V38.3176H141.835V33.9426H142.597V35.7614H144.697V33.9114H145.46V38.2864H144.697V36.4114L142.597 36.4426Z" fill="white"/>
<path d="M154.011 33.9114H154.773V38.2864H154.148L151.742 35.1614V38.2864H150.948V33.9114H151.661L153.998 36.9364L154.011 33.9114Z" fill="white"/>
<path d="M164.485 36.9685C164.377 37.2377 164.215 37.4822 164.01 37.6872C163.804 37.899 163.558 38.0669 163.285 38.181C162.685 38.4296 162.01 38.4296 161.41 38.181C161.141 38.0697 160.897 37.9061 160.691 37.6997C160.49 37.4926 160.331 37.2486 160.223 36.981C159.997 36.4194 159.997 35.7926 160.223 35.231C160.335 34.962 160.496 34.7161 160.698 34.506C160.906 34.2989 161.152 34.1335 161.423 34.0185C161.716 33.8962 162.03 33.8346 162.348 33.8372C162.664 33.8349 162.979 33.8944 163.273 34.0122C163.543 34.1242 163.788 34.29 163.991 34.4997C164.193 34.7068 164.352 34.9509 164.46 35.2185C164.685 35.7801 164.685 36.4069 164.46 36.9685H164.485ZM163.741 35.4997C163.67 35.3178 163.567 35.1505 163.435 35.006C163.303 34.8607 163.141 34.7456 162.96 34.6685C162.764 34.581 162.55 34.5383 162.335 34.5435C162.131 34.5437 161.93 34.584 161.741 34.6622C161.565 34.741 161.406 34.8536 161.273 34.9935C161.143 35.1383 161.042 35.3057 160.973 35.4872C160.895 35.6864 160.857 35.8986 160.86 36.1122C160.856 36.326 160.894 36.5385 160.973 36.7372C161.04 36.9229 161.144 37.0931 161.279 37.2372C161.41 37.381 161.57 37.4959 161.748 37.5747C161.945 37.6609 162.158 37.7035 162.373 37.6997C162.588 37.7049 162.801 37.6623 162.998 37.5747C163.173 37.4996 163.33 37.3889 163.46 37.2497C163.592 37.1052 163.695 36.9379 163.766 36.756C163.908 36.3643 163.908 35.9352 163.766 35.5435L163.741 35.4997Z" fill="white"/>
<path d="M169.96 33.9114H170.722V37.5926H173.022V38.2864H169.96V33.9114Z" fill="white"/>
<path d="M182.196 36.9685C182.088 37.2377 181.926 37.4822 181.721 37.6872C181.515 37.899 181.269 38.0669 180.996 38.181C180.396 38.4296 179.721 38.4296 179.121 38.181C178.851 38.0712 178.607 37.9075 178.402 37.6997C178.201 37.4926 178.042 37.2486 177.934 36.981C177.708 36.4194 177.708 35.7926 177.934 35.231C178.046 34.962 178.207 34.7161 178.409 34.506C178.617 34.2989 178.863 34.1335 179.134 34.0185C179.427 33.8962 179.741 33.8346 180.059 33.8372C180.375 33.8349 180.69 33.8944 180.984 34.0122C181.254 34.1242 181.498 34.29 181.702 34.4997C181.904 34.7068 182.063 34.9509 182.171 35.2185C182.396 35.7801 182.396 36.4069 182.171 36.9685H182.196ZM181.452 35.4997C181.381 35.3178 181.277 35.1505 181.146 35.006C181.013 34.8621 180.851 34.7472 180.671 34.6685C180.475 34.581 180.261 34.5383 180.046 34.5435C179.842 34.5437 179.641 34.584 179.452 34.6622C179.276 34.741 179.117 34.8536 178.984 34.9935C178.854 35.1383 178.753 35.3057 178.684 35.4872C178.606 35.6864 178.568 35.8986 178.571 36.1122C178.566 36.326 178.605 36.5385 178.684 36.7372C178.751 36.9229 178.855 37.0931 178.99 37.2372C179.121 37.381 179.281 37.4959 179.459 37.5747C179.655 37.6615 179.869 37.7041 180.084 37.6997C180.299 37.7049 180.512 37.6623 180.709 37.5747C180.884 37.4996 181.041 37.3889 181.171 37.2497C181.302 37.1052 181.406 36.9379 181.477 36.756C181.619 36.3643 181.619 35.9352 181.477 35.5435L181.452 35.4997Z" fill="white"/>
<path d="M191.186 37.9435C190.904 38.1209 190.593 38.2458 190.267 38.3123C190.086 38.3451 189.901 38.3619 189.717 38.3623C189.399 38.3658 189.083 38.3085 188.786 38.1935C188.52 38.0836 188.279 37.9212 188.077 37.7161C187.875 37.511 187.716 37.2674 187.611 36.9998C187.502 36.7143 187.447 36.4113 187.448 36.106C187.447 35.8061 187.504 35.5088 187.617 35.231C187.722 34.9614 187.879 34.7151 188.08 34.506C188.283 34.2963 188.528 34.1304 188.798 34.0185C189.085 33.8967 189.393 33.835 189.705 33.8373C189.88 33.8359 190.056 33.8485 190.23 33.8748C190.376 33.9023 190.521 33.9421 190.661 33.9935C190.792 34.0438 190.92 34.1044 191.042 34.1748C191.162 34.2526 191.277 34.3382 191.386 34.431L190.898 35.0123C190.817 34.9422 190.732 34.8775 190.642 34.8185C190.554 34.7624 190.462 34.7123 190.367 34.6685C190.266 34.629 190.161 34.5976 190.055 34.5748C189.928 34.5647 189.8 34.5647 189.673 34.5748C189.481 34.573 189.29 34.6158 189.117 34.6998C188.945 34.7768 188.792 34.8897 188.667 35.031C188.535 35.1742 188.433 35.342 188.367 35.5248C188.288 35.7236 188.25 35.936 188.255 36.1498C188.254 36.3626 188.29 36.574 188.361 36.7748C188.428 36.9585 188.532 37.1266 188.667 37.2685C188.798 37.4104 188.958 37.5232 189.136 37.5998C189.333 37.6849 189.546 37.7255 189.761 37.7185C189.96 37.7204 190.159 37.6887 190.348 37.6248C190.517 37.5737 190.676 37.4933 190.817 37.3873V36.5123H189.698V35.8435H191.573V37.681C191.452 37.7799 191.323 37.8677 191.186 37.9435Z" fill="white"/>
<path d="M198.793 38.2864H198.018V36.5614L196.28 33.9114H197.199L198.449 35.8489L199.699 33.9114H200.58L198.843 36.5426L198.793 38.2864Z" fill="white"/>
<path d="M209.416 9.49239C209.548 9.44518 209.665 9.3631 209.754 9.25489C209.845 9.1302 209.891 8.97812 209.885 8.82364C209.891 8.72402 209.873 8.62438 209.833 8.53304C209.793 8.4417 209.731 8.36133 209.654 8.29864C209.474 8.16527 209.253 8.09896 209.029 8.11114H208.072V10.2674H208.547V9.57364H208.922L209.385 10.2674H209.941L209.416 9.49239ZM209.304 9.07364C209.266 9.10566 209.222 9.12988 209.175 9.1449C209.128 9.15992 209.078 9.16544 209.029 9.16114H208.554V8.53614H209.016C209.116 8.52976 209.214 8.5561 209.297 8.61114C209.332 8.64118 209.359 8.67886 209.376 8.72117C209.394 8.76349 209.401 8.80928 209.397 8.85489C209.398 8.89593 209.39 8.93669 209.374 8.97442C209.358 9.01215 209.334 9.04598 209.304 9.07364ZM209.416 9.49239C209.548 9.44518 209.665 9.3631 209.754 9.25489C209.845 9.1302 209.891 8.97812 209.885 8.82364C209.891 8.72402 209.873 8.62438 209.833 8.53304C209.793 8.4417 209.731 8.36133 209.654 8.29864C209.474 8.16527 209.253 8.09896 209.029 8.11114H208.072V10.2674H208.547V9.57364H208.922L209.385 10.2674H209.941L209.416 9.49239ZM209.304 9.07364C209.266 9.10566 209.222 9.12988 209.175 9.1449C209.128 9.15992 209.078 9.16544 209.029 9.16114H208.554V8.53614H209.016C209.116 8.52976 209.214 8.5561 209.297 8.61114C209.332 8.64118 209.359 8.67886 209.376 8.72117C209.394 8.76349 209.401 8.80928 209.397 8.85489C209.398 8.89593 209.39 8.93669 209.374 8.97442C209.358 9.01215 209.334 9.04598 209.304 9.07364ZM210.785 8.44864C210.685 8.21466 210.541 8.00236 210.36 7.82364C210.18 7.64076 209.968 7.49247 209.735 7.38614C209.482 7.27986 209.21 7.22668 208.935 7.22989C208.66 7.22643 208.387 7.28184 208.135 7.39239C207.648 7.60244 207.261 7.99189 207.054 8.47989C206.951 8.72976 206.898 8.99724 206.897 9.26739C206.898 9.53552 206.951 9.80095 207.054 10.0486C207.158 10.2814 207.305 10.4932 207.485 10.6736C207.664 10.8559 207.876 11.0022 208.11 11.1049C208.483 11.263 208.895 11.3065 209.292 11.2296C209.69 11.1527 210.056 10.959 210.343 10.6732C210.63 10.3874 210.825 10.0226 210.904 9.62522C210.983 9.22787 210.941 8.81606 210.785 8.44239V8.44864ZM210.572 9.93614C210.482 10.1497 210.353 10.3447 210.191 10.5111C210.023 10.6813 209.822 10.8161 209.601 10.9073C209.38 10.9986 209.143 11.0445 208.904 11.0424C208.661 11.0451 208.421 10.9983 208.197 10.9049C207.984 10.8151 207.79 10.6833 207.629 10.5174C207.466 10.3519 207.337 10.1567 207.247 9.94239C207.159 9.71958 207.115 9.48196 207.116 9.24239C207.114 9.00007 207.16 8.75975 207.254 8.53614C207.343 8.32183 207.472 8.12663 207.635 7.96114C207.797 7.79521 207.99 7.66344 208.204 7.57364C208.428 7.47453 208.671 7.42548 208.916 7.42989C209.154 7.42564 209.391 7.47001 209.611 7.56028C209.831 7.65055 210.031 7.78483 210.197 7.95489C210.356 8.11998 210.483 8.31275 210.572 8.52364C210.757 8.97647 210.757 9.48331 210.572 9.93614ZM209.754 9.24239C209.845 9.1177 209.891 8.96562 209.885 8.81114C209.891 8.71152 209.873 8.61188 209.833 8.52054C209.793 8.4292 209.731 8.34883 209.654 8.28614C209.474 8.15277 209.253 8.08646 209.029 8.09864H208.072V10.2549H208.547V9.57364H208.922L209.385 10.2674H209.941L209.41 9.49239C209.544 9.44618 209.663 9.36403 209.754 9.25489V9.24239ZM209.304 9.06114C209.266 9.09316 209.222 9.11738 209.175 9.1324C209.128 9.14742 209.078 9.15294 209.029 9.14864H208.554V8.52364H209.016C209.116 8.51726 209.214 8.5436 209.297 8.59864C209.332 8.62868 209.359 8.66636 209.376 8.70867C209.394 8.75099 209.401 8.79678 209.397 8.84239C209.4 8.8855 209.393 8.92868 209.377 8.96871C209.361 9.00875 209.336 9.04461 209.304 9.07364V9.06114Z" fill="white"/>
<path d="M14.3107 26.9184L15.6732 25.1497H12.8232L14.3107 26.9184Z" fill="white"/>
<path d="M10.8775 17.7668H13.8588L12.7525 19.0856C12.5985 19.3099 12.5218 19.5784 12.5342 19.8503C12.5466 20.1221 12.6474 20.3825 12.8213 20.5918C13.4463 21.2168 16.5713 22.6481 16.5713 22.6481C16.5713 22.6481 17.115 22.9543 18.065 22.1418L17.0963 23.5418L13.4025 22.2918C13.1555 22.2166 12.8935 22.2041 12.6404 22.2554C12.3873 22.3067 12.1509 22.4202 11.9525 22.5856C11.4338 23.1168 11.3275 23.2731 11.3275 23.3106L10.8775 22.2606L11.8525 20.7793C12.0904 20.5059 12.2107 20.1497 12.1873 19.788C12.1639 19.4264 11.9987 19.0886 11.7275 18.8481C10.7713 17.7668 10.8775 17.7668 10.8775 17.7668Z" fill="white"/>
<path d="M12.417 14.9114L12.642 13.3489H13.8482L12.417 14.9114Z" fill="white"/>
<path d="M16.7803 15.2168L17.824 13.1543L21.499 13.1418L16.7803 15.2168Z" fill="white"/>
<path d="M33.899 26.518C32.749 34.4743 26.4303 36.9805 19.699 38.8118C18.1813 39.2034 16.7134 39.7675 15.324 40.493L14.999 40.668L14.4052 41.018C14.2615 41.1118 14.1177 41.193 13.9802 41.2868C11.9808 42.5002 10.4148 44.3133 9.50525 46.468L9.44275 46.6305C9.44275 46.693 9.40525 46.7493 9.3865 46.7993C9.38231 46.8387 9.38231 46.8785 9.3865 46.918C9.3865 46.9805 9.35525 47.0118 9.35525 47.0118C8.46775 46.043 8.68025 44.5118 9.04275 43.343C9.21381 42.7934 9.43342 42.26 9.699 41.7493C9.43756 41.5824 9.24124 41.3309 9.14275 41.0368C8.73025 39.7868 9.849 37.6055 10.6677 36.2868C10.7427 36.1618 10.8115 36.043 10.8865 35.9305L11.1177 35.5743C11.1927 35.4618 11.249 35.368 11.3052 35.2993L11.399 35.168C13.6303 32.043 17.4177 29.3618 22.4802 25.1055C31.9615 17.143 26.3365 8.30552 25.9303 7.68677C36.5115 18.6555 23.6553 31.3618 23.6553 31.3618C33.874 26.7805 32.6928 17.7743 32.624 17.268C32.7302 17.6743 34.374 23.243 33.899 26.518Z" fill="white"/>
<path d="M7.56848 36.2231C5.86977 34.7086 4.45765 32.9006 3.39973 30.8856C2.33894 28.8538 1.64296 26.6517 1.34348 24.3793C1.20597 23.2389 1.17459 22.0881 1.24973 20.9418C1.24973 20.6543 1.24973 20.3668 1.29973 20.0793L1.41848 19.2293L1.57473 18.3731C1.62473 18.0918 1.70598 17.8106 1.76848 17.5293C2.5858 14.1266 4.29869 11.0045 6.72947 8.48694C9.16025 5.9694 12.2204 4.1481 15.5924 3.212C18.9644 2.2759 22.5255 2.25909 25.9062 3.16331C29.2869 4.06753 32.364 5.85986 34.8185 8.35434C36.4577 10.0131 37.7832 11.9548 38.731 14.0856C39.6738 16.2151 40.2365 18.4933 40.3935 20.8168L40.431 21.6856C40.4529 21.9748 40.4529 22.2652 40.431 22.5543C40.431 23.1356 40.3685 23.7106 40.331 24.2918L40.0435 26.0043C39.9372 26.5731 39.756 27.1231 39.6122 27.6856C38.2623 32.1344 35.3848 35.9637 31.4872 38.4981C27.5967 40.9527 22.9598 41.943 18.406 41.2918C19.528 41.4075 20.659 41.4075 21.781 41.2918L22.6185 41.2356C22.8997 41.2356 23.1747 41.1418 23.4497 41.0981C24.0042 41.0205 24.5533 40.9078 25.0935 40.7606C27.2649 40.2207 29.3194 39.2887 31.156 38.0106C34.8303 35.478 37.4981 31.7351 38.6935 27.4356C38.8122 26.8981 38.9685 26.3668 39.0622 25.8231L39.2935 24.1918L39.3622 22.5418C39.3809 22.2692 39.3809 21.9957 39.3622 21.7231L39.3122 20.8981C39.1375 18.708 38.5812 16.5653 37.6685 14.5668C36.7588 12.5696 35.5018 10.7497 33.956 9.19184C32.4052 7.64193 30.5971 6.37308 28.6122 5.44184C24.61 3.55156 20.0649 3.15045 15.7935 4.31059C11.5134 5.47225 7.77459 8.09453 5.22473 11.7231C3.96268 13.5429 3.03368 15.5723 2.48098 17.7168C2.41223 17.9856 2.32473 18.2481 2.26848 18.5168L2.13098 19.3106L1.99973 20.1356C1.94973 20.4043 1.95598 20.6856 1.93098 20.9606L1.87473 21.8106V22.2293V22.6418C1.87473 23.1981 1.91848 23.7543 1.95598 24.3106C2.15602 26.5387 2.74848 28.7138 3.70598 30.7356C4.67524 32.7692 5.98111 34.6245 7.56848 36.2231Z" fill="white"/>
</g>
<defs>
<clipPath id="clip0_453_9517">
<rect width="210" height="44.375" fill="white" transform="translate(0.948242 0.813721)"/>
</clipPath>
</defs>
</svg>
